<svg width="84" height="75" viewBox="0 0 84 75" fill="none" xmlns="http://www.w3.org/2000/svg">
<path d="M65.0111 59.1641C66.6735 56.5869 68.1334 53.8846 69.3777 51.0816C64.5902 65.7441 52.4578 74.0376 36.8649 74.0376C16.8723 74.0371 0.666748 57.4719 0.666748 37.0376C0.666748 16.6033 16.8723 0.0375977 36.8629 0.0375977C43.4103 0.0658587 49.8256 1.88242 55.4158 5.29107C61.0061 8.69972 65.5588 13.5709 68.5823 19.3785C63.1104 10.9986 53.3155 6.32268 41.7255 6.32268C37.2029 6.32547 32.725 7.21904 28.5477 8.95238C24.3704 10.6857 20.5754 13.2249 17.3794 16.4249C14.1834 19.6249 11.6489 23.4231 9.92081 27.6026C8.19269 31.782 7.3047 36.261 7.30756 40.7836C7.30756 59.8153 22.7171 72.091 41.726 72.091C51.1791 72.091 60.3975 65.3444 65.0121 59.1641" fill="white"/>
<path d="M38.9128 16.1784C39.3418 15.7471 39.6129 15.1839 39.6824 14.5797C39.7519 13.9754 39.6158 13.3654 39.296 12.848C38.9762 12.3306 38.4914 11.9361 37.9198 11.7281C37.3482 11.5201 36.7233 11.5107 36.1457 11.7015C35.5682 11.8924 35.0718 12.2722 34.7367 12.7798C34.4016 13.2874 34.2473 13.8932 34.2987 14.4992C34.3501 15.1053 34.6043 15.6763 35.0201 16.1202C35.436 16.5641 35.9893 16.8549 36.5907 16.9457C31.7318 18.7196 27.2833 21.4609 23.5145 25.0037C19.7456 28.5465 16.7348 32.8172 14.6643 37.5574L68.8041 19.6567C64.3163 17.0857 59.3535 15.452 54.2161 14.8545C49.0786 14.257 43.8734 14.7081 38.9153 16.1804M25.773 26.0425C25.773 26.0425 21.6436 28.5425 17.1223 35.0104C17.2147 34.8039 20.1994 28.1641 25.2043 25.0677C25.2043 25.0677 25.8931 25.8311 25.773 26.0425ZM54.8693 15.7352C60.7522 15.8834 66.6776 19.3083 66.8629 19.4161C59.6989 16.1137 54.8693 16.0381 54.8693 16.0381C54.6579 15.918 54.8693 15.7352 54.8693 15.7352Z" fill="white"/>
<path d="M49.4848 49.307C49.4681 49.2315 49.4702 49.1531 49.4909 49.0786C49.5117 49.0042 49.5505 48.936 49.6039 48.8801L73.3238 23.4166L73.3825 23.3529C73.5653 23.1724 73.8119 23.0712 74.0688 23.0713C74.2563 23.0727 74.4396 23.1271 74.5976 23.2283C74.7555 23.3295 74.8815 23.4733 74.9612 23.643C75.0409 23.8128 75.0709 24.0017 75.0478 24.1878C75.0247 24.3739 74.9494 24.5497 74.8307 24.6948C74.8304 24.6958 74.8304 24.6968 74.8307 24.6978L74.6992 24.8297L50.1088 49.4433C50.0321 49.5231 49.9291 49.5724 49.8188 49.5822C49.7388 49.5891 49.6592 49.5641 49.5976 49.5125C49.536 49.4609 49.4974 49.387 49.4902 49.307" fill="white"/>
<path d="M51.7929 47.2585C51.7921 47.1769 51.8115 47.0964 51.8495 47.0241C51.8874 46.9519 51.9426 46.8902 52.0102 46.8445L82.1041 25.8465L82.1792 25.7931C82.4075 25.6477 82.6839 25.598 82.9485 25.6548C83.1411 25.6982 83.3176 25.7953 83.4575 25.9346C83.5974 26.074 83.6952 26.2501 83.7394 26.4426C83.7837 26.635 83.7726 26.8361 83.7076 27.0226C83.6426 27.2091 83.5262 27.3734 83.3719 27.4967H83.3689L83.2044 27.6034L52.4006 47.5372C52.3038 47.6023 52.1868 47.6302 52.071 47.6157C51.987 47.6052 51.9105 47.5618 51.8584 47.4951C51.8062 47.4283 51.7827 47.3436 51.7929 47.2595" fill="white"/>
<path d="M70.9986 44.3164C70.2669 51.3859 66.9406 57.9332 61.6627 62.693C56.3847 67.4529 49.5298 70.0874 42.4225 70.0874C35.3153 70.0874 28.4603 67.4529 23.1824 62.693C17.9044 57.9332 14.5782 51.3859 13.8464 44.3164H70.9986Z" fill="white"/>
<path d="M38.1898 43.0021C38.0827 43.0718 37.9569 43.1073 37.8291 43.1039C36.6157 43.1105 35.4013 43.1105 34.1859 43.1039C34.1821 43.1039 34.1783 43.1033 34.1748 43.1018C34.1713 43.1004 34.1681 43.0983 34.1654 43.0956C34.1628 43.093 34.1607 43.0898 34.1592 43.0863C34.1578 43.0828 34.1571 43.079 34.1572 43.0752C34.1564 43.071 34.1564 43.0666 34.1572 43.0624C34.7644 41.7645 34.2096 40.633 33.1769 39.7946C32.6335 39.3554 31.4848 38.632 32.4319 37.8465C32.4547 37.8282 32.4823 37.817 32.5114 37.8144C33.8865 37.7132 35.267 37.711 36.6424 37.8079C36.6474 37.8083 36.6523 37.8097 36.6568 37.812C36.6613 37.8143 36.6653 37.8175 36.6686 37.8213C36.6719 37.8252 36.6744 37.8297 36.6759 37.8345C36.6774 37.8393 36.6779 37.8444 36.6775 37.8494C36.6779 37.8516 36.6779 37.8537 36.6775 37.8559C36.3158 39.3316 37.2516 40.4043 38.38 41.1592C39.2753 41.759 38.9097 42.5194 38.1908 43.0021" fill="white"/>
<path d="M31.8515 43.0737C31.8271 43.0907 31.7982 43.1 31.7685 43.1004H27.9642C27.9562 43.1002 27.9486 43.097 27.943 43.0914C27.9374 43.0858 27.9341 43.0782 27.934 43.0702C27.9332 43.0663 27.9332 43.0623 27.934 43.0584C28.0779 42.7594 28.1583 42.4338 28.1702 42.1022C28.1821 41.7706 28.1253 41.4401 28.0032 41.1315C27.6267 40.1676 26.7186 39.6557 26.0985 39.0712C26.0936 39.0662 26.0908 39.0595 26.0908 39.0524C26.0908 39.0454 26.0936 39.0387 26.0985 39.0337C26.102 39.0304 26.106 39.0279 26.1104 39.0263C27.4996 38.5998 28.9188 38.2776 30.356 38.0623C30.364 38.0612 30.3722 38.0632 30.3787 38.068C30.3853 38.0728 30.3897 38.08 30.391 38.088C30.3919 38.0909 30.3919 38.094 30.391 38.0969C30.1815 39.4848 31.0798 40.4131 32.1129 41.1359C33.1297 41.8444 32.5981 42.5465 31.8481 43.0737" fill="white"/>
<path d="M25.6702 40.9757C26.1712 41.2796 26.7127 41.865 26.2996 42.4392C26.1087 42.6828 25.8841 42.898 25.6326 43.0785C25.6089 43.0964 25.5799 43.1061 25.5501 43.1062L17.6252 43.1086C17.5778 43.1086 17.5738 43.0951 17.6134 43.0681C19.7153 41.6695 21.9696 40.5147 24.3327 39.6259C24.345 39.6212 24.3585 39.6208 24.371 39.6249C24.3835 39.6289 24.3943 39.6371 24.4014 39.6482C24.7184 40.1815 25.1526 40.6356 25.6712 40.9762" fill="white"/>
<path d="M40.5844 43.0734C40.6087 43.0904 40.6377 43.0997 40.6674 43.1001H44.4717C44.4797 43.0999 44.4873 43.0967 44.4929 43.0911C44.4985 43.0855 44.5017 43.0779 44.5019 43.0699C44.5027 43.066 44.5027 43.062 44.5019 43.0581C44.358 42.759 44.2776 42.4335 44.2657 42.1019C44.2538 41.7702 44.3106 41.4397 44.4327 41.1312C44.8092 40.1672 45.7173 39.6554 46.3373 39.0709C46.3423 39.0659 46.3451 39.0592 46.3451 39.0521C46.3451 39.0451 46.3423 39.0383 46.3373 39.0333C46.3339 39.0301 46.3299 39.0276 46.3255 39.0259C44.0306 38.4334 41.6932 38.0193 39.3344 37.7873C39.3264 37.7864 39.3183 37.7886 39.3118 37.7933C39.3053 37.7981 39.3009 37.8051 39.2993 37.813C39.2983 37.816 39.2983 37.8193 39.2993 37.8224C39.5088 39.2102 41.3581 40.4128 40.3215 41.1361C39.3047 41.8446 39.8364 42.5467 40.5864 43.0739" fill="white"/>
<path d="M48.0336 39.6477C48.0407 39.6366 48.0514 39.6284 48.0639 39.6244C48.0765 39.6203 48.09 39.6207 48.1022 39.6254C50.4653 40.5138 52.7195 41.6681 54.8216 43.0661C54.8611 43.0931 54.8572 43.1067 54.8097 43.1067H46.8848C46.8551 43.1066 46.8261 43.0969 46.8023 43.079C46.5509 42.8985 46.3263 42.6833 46.1353 42.4397C45.7228 41.8675 46.2643 41.2796 46.7648 40.9762C47.2833 40.6356 47.7175 40.1814 48.0345 39.6482" fill="white"/>
</svg>
