<svg width="167" height="39" viewBox="0 0 167 39" fill="none" xmlns="http://www.w3.org/2000/svg">
<path d="M13.1658 38.8684C10.7588 38.9257 8.37542 38.3827 6.23078 37.2884C4.29422 36.2684 2.69834 34.7042 1.63978 32.7884C0.50499 30.6618 -0.0583795 28.277 0.00478273 25.8674C-0.032551 23.5407 0.500657 21.2403 1.55778 19.1674C2.55781 17.2255 4.07631 15.5987 5.94478 14.4674C7.95573 13.2812 10.2587 12.6819 12.5928 12.7374C13.9404 12.6607 15.2897 12.8552 16.5608 13.3093C17.8319 13.7635 18.9989 14.4681 19.9928 15.3814C21.8719 17.3144 23.1373 19.76 23.6298 22.4104C23.6521 22.4996 23.6615 22.5915 23.6578 22.6834C23.6669 22.7939 23.654 22.9051 23.6196 23.0105C23.5853 23.1159 23.5303 23.2135 23.4578 23.2974C23.3047 23.4443 23.1243 23.5598 22.9268 23.6374C22.2908 23.9351 21.6357 24.19 20.9658 24.4004C20.2751 24.6177 19.6031 24.8541 18.9498 25.1094C17.0424 25.8174 15.1261 26.512 13.2008 27.1934C11.2755 27.8747 9.36578 28.5967 7.47178 29.3594C7.32645 29.4321 7.25378 29.5231 7.25378 29.6324C7.25706 29.6995 7.27589 29.7648 7.30878 29.8234C7.98419 31.0812 9.03206 32.0994 10.3088 32.7384C11.577 33.3738 12.9773 33.7006 14.3958 33.6924C15.4863 33.7015 16.5698 33.517 17.5958 33.1474C18.6076 32.774 19.5872 32.3185 20.5248 31.7854C20.6481 31.7146 20.7753 31.6508 20.9058 31.5944C21.0258 31.5412 21.1555 31.5133 21.2868 31.5124C21.3955 31.5056 21.5044 31.5229 21.6057 31.563C21.707 31.6031 21.7982 31.665 21.8728 31.7444C22.0121 31.9039 22.127 32.0832 22.2138 32.2764C22.2864 32.4037 22.4271 32.6897 22.6358 33.1344C22.8444 33.5791 23.0444 34.024 23.2358 34.4694C23.3724 34.7399 23.4688 35.029 23.5218 35.3274C23.5295 35.5052 23.4715 35.6796 23.3588 35.8174C23.2451 35.949 23.1174 36.0677 22.9778 36.1714C21.5464 37.123 19.9538 37.8061 18.2778 38.1874C16.6079 38.6185 14.8923 38.8472 13.1678 38.8684M6.32478 25.6014L11.8248 23.6934C13.6594 23.0574 15.4848 22.4214 17.3008 21.7854C16.8527 20.7949 16.2092 19.9051 15.4088 19.1694C14.5964 18.4226 13.5249 18.0219 12.4218 18.0524C11.1812 18.006 9.96451 18.4018 8.98878 19.1694C8.07508 19.9222 7.37909 20.9054 6.97278 22.0174C6.53839 23.1623 6.31675 24.3769 6.31878 25.6014" fill="#002F35"/>
<path d="M39.9388 0.0123414C42.4346 -0.0227477 44.9136 0.425829 47.2388 1.33333C49.3364 2.14987 51.1432 3.57273 52.4288 5.42036C53.7903 7.55006 54.4612 10.0481 54.3498 12.5733C54.3828 14.7655 53.9171 16.9365 52.9878 18.9223C52.0135 20.8841 50.5013 22.5284 48.6278 23.6633C48.5711 23.6825 48.5219 23.7194 48.4875 23.7685C48.4531 23.8176 48.4354 23.8764 48.4368 23.9364C48.6385 24.3839 48.8802 24.8122 49.1588 25.2163C49.6402 25.9977 50.2488 26.96 50.9848 28.1033C51.7208 29.2467 52.4745 30.4083 53.2458 31.5883C54.0178 32.769 54.6945 33.8133 55.2758 34.7213L56.3928 36.4644C56.4835 36.6104 56.5745 36.7694 56.6658 36.9414C56.7564 37.1137 56.8031 37.3056 56.8018 37.5003C56.8118 37.6455 56.7653 37.7889 56.6722 37.9006C56.5791 38.0124 56.4464 38.084 56.3018 38.1004C56.0293 38.1646 55.7508 38.2008 55.4708 38.2083H50.0488C49.8664 38.2066 49.6871 38.1611 49.526 38.0757C49.3649 37.9902 49.2266 37.8674 49.1228 37.7174C48.5527 36.9815 48.0252 36.2135 47.5428 35.4173C47.0522 34.6093 46.5522 33.8236 46.0428 33.0603C45.2462 31.825 44.4378 30.5944 43.6178 29.3684C42.7978 28.1424 41.9978 26.9027 41.2178 25.6494C41.1908 25.5926 41.1483 25.5445 41.0953 25.5108C41.0422 25.477 40.9807 25.4588 40.9178 25.4583H36.0388C35.9944 25.452 35.9491 25.456 35.9066 25.4702C35.864 25.4844 35.8253 25.5083 35.7936 25.5401C35.7619 25.5718 35.7379 25.6105 35.7238 25.653C35.7096 25.6956 35.7055 25.7409 35.7118 25.7854C35.7118 27.0387 35.7072 28.2967 35.6978 29.5593C35.6885 30.822 35.6748 32.08 35.6568 33.3333C35.6568 33.8607 35.6705 34.501 35.6978 35.2543C35.7303 35.8775 35.7076 36.5022 35.6298 37.1213C35.6016 37.4127 35.5035 37.693 35.3438 37.9384C35.2351 38.0439 35.1037 38.1232 34.9598 38.1705C34.8158 38.2178 34.663 38.2317 34.5128 38.2113H29.7988C29.6458 38.2301 29.4905 38.2133 29.345 38.1622C29.1995 38.111 29.0679 38.0269 28.9603 37.9165C28.8527 37.806 28.7722 37.6721 28.7249 37.5253C28.6776 37.3786 28.6649 37.2228 28.6878 37.0703C28.6878 36.089 28.7062 35.1034 28.7428 34.1134C28.7795 33.1234 28.8068 32.1277 28.8248 31.1264C28.8795 26.9844 28.9068 22.8334 28.9068 18.6734C28.9068 14.732 28.8795 10.772 28.8248 6.79335C28.8062 5.84935 28.7835 4.90903 28.7568 3.97236C28.7302 3.0357 28.7165 2.09569 28.7158 1.15236C28.6922 0.999078 28.7046 0.842397 28.7519 0.694714C28.7993 0.547032 28.8803 0.412369 28.9887 0.301404C29.097 0.190439 29.2297 0.106175 29.3762 0.0553101C29.5227 0.0044455 29.679 -0.0116417 29.8328 0.00831305L39.9388 0.0123414ZM35.7148 18.9223H41.2148C42.0253 18.9624 42.8351 18.8319 43.5919 18.5392C44.3487 18.2465 45.0355 17.7981 45.608 17.223C46.1805 16.648 46.6259 15.9591 46.9152 15.2011C47.2046 14.443 47.3315 13.6326 47.2878 12.8223C47.3648 11.1672 46.7986 9.54653 45.7078 8.29933C45.138 7.71351 44.4488 7.25709 43.687 6.96101C42.9253 6.66493 42.1087 6.53612 41.2928 6.58333H35.6878C35.7058 8.63666 35.7148 10.6944 35.7148 12.7564V18.9223Z" fill="#002F35"/>
<path d="M73.1509 38.8684C70.7439 38.9257 68.3605 38.3827 66.2159 37.2884C64.2793 36.2684 62.6834 34.7042 61.6249 32.7884C60.4901 30.6618 59.9267 28.277 59.9899 25.8674C59.9526 23.5407 60.4857 21.2403 61.5429 19.1674C62.5429 17.2255 64.0614 15.5987 65.9299 14.4674C67.9408 13.2812 70.2438 12.6819 72.5779 12.7374C73.9255 12.6607 75.2748 12.8552 76.5459 13.3093C77.817 13.7635 78.984 14.4681 79.9779 15.3814C81.8569 17.3144 83.1224 19.76 83.6149 22.4104C83.6371 22.4996 83.6466 22.5915 83.6429 22.6834C83.6519 22.7937 83.6389 22.9048 83.6045 23.01C83.5702 23.1153 83.5152 23.2126 83.4429 23.2964C83.2897 23.4433 83.1094 23.5588 82.9119 23.6364C82.2759 23.9341 81.6208 24.189 80.9509 24.3994C80.2602 24.6174 79.5882 24.8537 78.9349 25.1084C77.0275 25.8164 75.1112 26.5111 73.1859 27.1924C71.2605 27.8737 69.3532 28.5961 67.4639 29.3594C67.3186 29.4321 67.2459 29.5231 67.2459 29.6324C67.2491 29.6995 67.268 29.7648 67.3009 29.8234C67.9763 31.0812 69.0241 32.0994 70.3009 32.7384C71.5691 33.3738 72.9694 33.7006 74.3879 33.6924C75.4784 33.7015 76.5619 33.517 77.5879 33.1474C78.5997 32.774 79.5793 32.3185 80.5169 31.7854C80.6402 31.7146 80.7674 31.6508 80.8979 31.5944C81.0179 31.5412 81.1476 31.5133 81.2789 31.5124C81.3876 31.5056 81.4965 31.5229 81.5978 31.563C81.6991 31.6031 81.7903 31.665 81.8649 31.7444C82.0042 31.9039 82.1191 32.0832 82.2059 32.2764C82.2785 32.4037 82.4192 32.6897 82.6279 33.1344C82.8365 33.5791 83.0365 34.024 83.2279 34.4694C83.3645 34.7399 83.4609 35.029 83.5139 35.3274C83.5216 35.5052 83.4636 35.6796 83.3509 35.8174C83.2373 35.949 83.1095 36.0677 82.9699 36.1714C81.5387 37.1237 79.946 37.8075 78.2699 38.1894C76.6 38.6205 74.8844 38.8491 73.1599 38.8704M66.3089 25.6014L71.8089 23.6934C73.6435 23.0574 75.4689 22.4214 77.2849 21.7854C76.8368 20.7949 76.1932 19.9051 75.3929 19.1694C74.5804 18.4227 73.5089 18.022 72.4059 18.0524C71.1653 18.0061 69.9486 18.4019 68.9729 19.1694C68.0592 19.9222 67.3632 20.9055 66.9569 22.0174C66.5225 23.1623 66.3008 24.3769 66.3029 25.6014" fill="#002F35"/>
<path d="M93.0438 38.9234C91.9387 38.9112 90.8431 38.7176 89.8008 38.3504C88.7415 38.0106 87.779 37.4222 86.9937 36.6344C86.894 36.5446 86.8135 36.4354 86.7573 36.3135C86.7011 36.1916 86.6703 36.0596 86.6667 35.9254C86.7009 35.6437 86.7601 35.3656 86.8438 35.0944C86.9618 34.6497 87.0951 34.191 87.2437 33.7183C87.3924 33.2457 87.4834 32.9367 87.5168 32.7913C87.5922 32.5673 87.6928 32.3527 87.8167 32.1514C87.8782 32.049 87.9668 31.9654 88.0726 31.9101C88.1785 31.8547 88.2975 31.8295 88.4167 31.8374C89.0001 31.9305 89.552 32.1642 90.0247 32.5184C90.7783 32.98 91.6482 33.2163 92.5317 33.1994C92.8623 33.252 93.2006 33.2269 93.5199 33.1262C93.8391 33.0254 94.1305 32.8518 94.371 32.6189C94.6115 32.3861 94.7945 32.1004 94.9056 31.7846C95.0166 31.4688 95.0526 31.1315 95.0107 30.7994C95.0556 30.3835 94.9862 29.9632 94.81 29.5839C94.6338 29.2045 94.3574 28.8804 94.0107 28.6464C93.3441 28.2464 92.6311 27.848 91.8717 27.4514C90.4824 26.7511 89.2859 25.7211 88.3867 24.4514C87.5506 23.135 87.1339 21.5958 87.1917 20.0374C87.136 19.0756 87.2831 18.1128 87.6233 17.2115C87.9636 16.3102 88.4894 15.4904 89.1667 14.8054C90.6075 13.5048 92.5052 12.8287 94.4438 12.9254C94.8675 12.9379 95.2901 12.9743 95.7097 13.0344C96.3109 13.1124 96.907 13.2259 97.4948 13.3743C98.0495 13.5038 98.5819 13.7148 99.0747 14.0004C99.2582 14.0838 99.4157 14.2152 99.5308 14.3806C99.6459 14.546 99.7143 14.7394 99.7288 14.9404C99.7209 15.327 99.6472 15.7095 99.5107 16.0714C99.3654 16.48 99.2474 16.857 99.1567 17.2024C99.0831 17.4401 98.9824 17.6686 98.8568 17.8834C98.7885 17.9929 98.6912 18.0814 98.5758 18.1391C98.4604 18.1968 98.3313 18.2214 98.2028 18.2103C97.7769 18.2001 97.3583 18.0978 96.9757 17.9104C96.5308 17.7086 96.0473 17.6063 95.5587 17.6104C94.8983 17.6004 94.2543 17.8167 93.7338 18.2233C93.4727 18.427 93.2645 18.6906 93.1268 18.9917C92.9891 19.2928 92.926 19.6227 92.9427 19.9534C92.9209 20.3217 92.979 20.6903 93.1132 21.034C93.2473 21.3776 93.4542 21.6882 93.7198 21.9444C94.295 22.4549 94.9427 22.8775 95.6418 23.1984C96.4393 23.5818 97.2051 24.0282 97.9318 24.5333C98.7338 25.1043 99.3915 25.8546 99.8528 26.7244C100.428 27.9249 100.695 29.2498 100.63 30.5794C100.696 32.7221 100.007 34.82 98.6837 36.5064C98.0014 37.3229 97.1368 37.9678 96.1596 38.389C95.1824 38.8102 94.1199 38.996 93.0577 38.9314" fill="#002F35"/>
<path d="M107.439 13.1193C107.439 11.5573 107.43 9.99929 107.412 8.44529C107.394 6.89129 107.384 5.34263 107.384 3.7993C107.362 3.64759 107.376 3.49297 107.425 3.34764C107.473 3.2023 107.555 3.07024 107.663 2.96189C107.772 2.85355 107.904 2.77183 108.049 2.72331C108.194 2.67478 108.349 2.66077 108.501 2.68229H112.782C112.933 2.66077 113.088 2.67478 113.233 2.72331C113.379 2.77183 113.511 2.85355 113.619 2.96189C113.727 3.07024 113.809 3.2023 113.858 3.34764C113.906 3.49297 113.92 3.64759 113.899 3.7993C113.899 5.3433 113.894 6.89196 113.885 8.44529C113.875 9.99863 113.871 11.5566 113.871 13.1193C113.871 13.3373 113.989 13.4463 114.225 13.4463H118.506C118.657 13.4247 118.812 13.4388 118.957 13.4873C119.103 13.5359 119.235 13.6175 119.343 13.7259C119.451 13.8342 119.533 13.9663 119.582 14.1116C119.63 14.257 119.644 14.4116 119.623 14.5633C119.623 15.1266 119.618 15.6933 119.609 16.2633C119.599 16.8333 119.595 17.4099 119.595 17.9933C119.616 18.145 119.602 18.2996 119.554 18.445C119.505 18.5903 119.424 18.7224 119.315 18.8307C119.207 18.9391 119.075 19.0207 118.929 19.0693C118.784 19.1178 118.629 19.1318 118.478 19.1103H114.228C113.992 19.1103 113.874 19.2193 113.874 19.4373C113.874 22.3806 113.883 25.3236 113.901 28.2663C113.919 31.2089 113.928 34.1519 113.929 37.0953C113.95 37.247 113.936 37.4016 113.888 37.547C113.839 37.6923 113.757 37.8244 113.649 37.9327C113.541 38.0411 113.409 38.1227 113.263 38.1712C113.118 38.2198 112.963 38.2338 112.812 38.2123H108.476C108.324 38.2338 108.169 38.2198 108.024 38.1712C107.879 38.1227 107.747 38.0411 107.638 37.9327C107.53 37.8244 107.448 37.6923 107.4 37.547C107.351 37.4016 107.337 37.247 107.359 37.0953C107.359 34.1519 107.372 31.2093 107.4 28.2673C107.427 25.3253 107.441 22.3823 107.441 19.4383C107.441 19.1656 107.25 19.0323 106.868 19.0383C106.486 19.0443 106.05 19.0776 105.56 19.1383C105.121 19.1975 104.675 19.1603 104.252 19.0293C103.87 18.9026 103.679 18.5576 103.679 17.9943V14.5613C103.657 14.4096 103.671 14.2549 103.72 14.1096C103.768 13.9643 103.85 13.8322 103.958 13.7239C104.067 13.6155 104.199 13.5339 104.344 13.4853C104.489 13.4368 104.644 13.4227 104.796 13.4443H107.086C107.321 13.4443 107.439 13.3353 107.44 13.1173" fill="#002F35"/>
<path d="M128.425 13.5003C128.567 13.4819 128.711 13.4945 128.847 13.5371C128.984 13.5798 129.11 13.6515 129.216 13.7474C129.322 13.8433 129.406 13.9611 129.462 14.0926C129.519 14.2241 129.546 14.3663 129.542 14.5093L129.815 17.6163C129.815 17.6343 129.833 17.7653 129.87 18.0163C129.907 18.2673 129.97 18.3833 130.061 18.3833C130.152 18.3833 130.247 18.2833 130.347 18.0833L130.524 17.7293C131.176 16.4405 132.107 15.3132 133.249 14.4293C134.434 13.5964 135.861 13.1765 137.309 13.2343C137.796 13.2425 138.283 13.2759 138.767 13.3343C139.357 13.401 139.652 13.7053 139.652 14.2473C139.633 14.6777 139.578 15.1059 139.489 15.5273C139.379 16.1086 139.257 16.6943 139.122 17.2843C138.986 17.8743 138.882 18.324 138.808 18.6333C138.756 18.8986 138.639 19.1468 138.467 19.3553C138.363 19.4509 138.24 19.5234 138.106 19.568C137.972 19.6126 137.83 19.6284 137.69 19.6143C137.512 19.6148 137.334 19.6012 137.158 19.5733C136.973 19.5453 136.786 19.5315 136.599 19.5323C135.262 19.4958 133.963 19.9794 132.975 20.8813C131.986 21.7931 131.229 22.9284 130.768 24.1923C130.291 25.427 130.042 26.7378 130.032 28.0613V37.1083C130.053 37.26 130.039 37.4146 129.991 37.5599C129.942 37.7053 129.861 37.8373 129.752 37.9457C129.644 38.054 129.512 38.1357 129.366 38.1842C129.221 38.2327 129.066 38.2468 128.915 38.2253H124.691C124.536 38.245 124.379 38.2283 124.232 38.1765C124.085 38.1247 123.952 38.0392 123.844 37.9269C123.736 37.8146 123.655 37.6785 123.609 37.5296C123.563 37.3807 123.552 37.2231 123.578 37.0693C123.578 34.2533 123.591 31.4423 123.619 28.6363C123.646 25.8303 123.66 23.0283 123.66 20.2303V14.6163C123.638 14.4646 123.652 14.31 123.701 14.1646C123.749 14.0193 123.831 13.8872 123.939 13.7789C124.048 13.6705 124.18 13.5889 124.325 13.5403C124.47 13.4918 124.625 13.4777 124.777 13.4993L128.425 13.5003Z" fill="#002F35"/>
<path d="M141.119 25.9803C141.077 23.6265 141.635 21.3009 142.741 19.2223C143.795 17.2703 145.364 15.6447 147.277 14.5223C149.321 13.3425 151.648 12.7442 154.008 12.7923C156.314 12.7374 158.589 13.3261 160.579 14.4923C162.434 15.6117 163.947 17.2187 164.952 19.1383C166.015 21.181 166.554 23.4565 166.518 25.7593C166.563 28.0923 166.03 30.4001 164.965 32.4763C163.969 34.388 162.453 35.9795 160.592 37.0673C158.553 38.2162 156.241 38.791 153.902 38.7303C151.564 38.7847 149.251 38.2364 147.186 37.1383C145.303 36.1089 143.752 34.5634 142.717 32.6833C141.618 30.6245 141.069 28.3166 141.124 25.9833M153.876 18.3003C152.63 18.2558 151.407 18.6445 150.415 19.4003C149.482 20.143 148.759 21.115 148.315 22.2213C147.843 23.3625 147.602 24.5862 147.606 25.8213C147.605 26.9977 147.861 28.1601 148.356 29.2273C148.83 30.2851 149.566 31.2041 150.495 31.8973C151.45 32.5975 152.611 32.9614 153.795 32.9323C155.029 32.978 156.243 32.6087 157.242 31.8833C158.162 31.1808 158.877 30.2447 159.313 29.1723C160.239 26.9157 160.239 24.385 159.313 22.1283C158.877 21.0483 158.168 20.1 157.256 19.3763C156.287 18.6385 155.093 18.2584 153.876 18.3003Z" fill="#002F35"/>
</svg>
