<svg width="210" height="33" viewBox="0 0 210 33" fill="none" xmlns="http://www.w3.org/2000/svg">
<g clip-path="url(#clip0_277_10426)">
<path d="M18.364 21.864L12 28.228L5.636 21.864C4.37734 20.6054 3.52019 19.0017 3.17293 17.2559C2.82567 15.5101 3.00391 13.7005 3.6851 12.0559C4.36629 10.4114 5.51984 9.00582 6.99988 8.01689C8.47992 7.02796 10.22 6.50012 12 6.50012C13.78 6.50012 15.5201 7.02796 17.0001 8.01689C18.4802 9.00582 19.6337 10.4114 20.3149 12.0559C20.9961 13.7005 21.1743 15.5101 20.8271 17.2559C20.4798 19.0017 19.6227 20.6054 18.364 21.864ZM12 19.5C13.0609 19.5 14.0783 19.0786 14.8284 18.3285C15.5786 17.5783 16 16.5609 16 15.5C16 14.4392 15.5786 13.4218 14.8284 12.6716C14.0783 11.9215 13.0609 11.5 12 11.5C10.9391 11.5 9.92172 11.9215 9.17158 12.6716C8.42143 13.4218 8 14.4392 8 15.5C8 16.5609 8.42143 17.5783 9.17158 18.3285C9.92172 19.0786 10.9391 19.5 12 19.5ZM12 17.5C11.4696 17.5 10.9609 17.2893 10.5858 16.9143C10.2107 16.5392 10 16.0305 10 15.5C10 14.9696 10.2107 14.4609 10.5858 14.0858C10.9609 13.7108 11.4696 13.5 12 13.5C12.5304 13.5 13.0391 13.7108 13.4142 14.0858C13.7893 14.4609 14 14.9696 14 15.5C14 16.0305 13.7893 16.5392 13.4142 16.9143C13.0391 17.2893 12.5304 17.5 12 17.5Z" fill="#03053D"/>
</g>
<path d="M37.432 4.2C38.2907 4.2 38.9393 4.41 39.378 4.83C39.826 5.25 40.05 5.86133 40.05 6.664C40.05 7.084 39.9473 7.46667 39.742 7.812C39.546 8.148 39.252 8.414 38.86 8.61C38.4773 8.806 37.9967 8.90867 37.418 8.918L37.446 8.4C37.754 8.4 38.0853 8.442 38.44 8.526C38.804 8.61 39.1447 8.75467 39.462 8.96C39.7793 9.16533 40.0407 9.44533 40.246 9.8C40.4513 10.1453 40.554 10.5793 40.554 11.102C40.554 11.6713 40.4607 12.1473 40.274 12.53C40.0873 12.9033 39.84 13.1973 39.532 13.412C39.224 13.6267 38.8833 13.7807 38.51 13.874C38.146 13.958 37.7867 14 37.432 14H33.848C33.652 14 33.484 13.9347 33.344 13.804C33.204 13.664 33.134 13.4913 33.134 13.286V4.914C33.134 4.70867 33.204 4.54067 33.344 4.41C33.484 4.27 33.652 4.2 33.848 4.2H37.432ZM37.236 5.572H34.478L34.646 5.348V8.358L34.492 8.204H37.264C37.6 8.19467 37.894 8.08267 38.146 7.868C38.4073 7.644 38.538 7.31733 38.538 6.888C38.538 6.44933 38.4213 6.12267 38.188 5.908C37.9547 5.684 37.6373 5.572 37.236 5.572ZM37.334 9.576H34.548L34.646 9.478V12.782L34.534 12.656H37.418C37.9033 12.656 38.2953 12.53 38.594 12.278C38.8927 12.0167 39.042 11.6247 39.042 11.102C39.042 10.6633 38.9533 10.3367 38.776 10.122C38.5987 9.90733 38.3793 9.76267 38.118 9.688C37.8567 9.61333 37.5953 9.576 37.334 9.576ZM45.8091 6.51C46.4531 6.51 46.9525 6.65 47.3071 6.93C47.6618 7.20067 47.9091 7.56933 48.0491 8.036C48.1985 8.50267 48.2731 9.016 48.2731 9.576V13.286C48.2731 13.4913 48.2031 13.664 48.0631 13.804C47.9325 13.9347 47.7691 14 47.5731 14C47.3678 14 47.1998 13.9347 47.0691 13.804C46.9385 13.664 46.8731 13.4913 46.8731 13.286V9.576C46.8731 9.24933 46.8265 8.95067 46.7331 8.68C46.6491 8.40933 46.4951 8.19467 46.2711 8.036C46.0565 7.87733 45.7531 7.798 45.3611 7.798C44.9971 7.798 44.6705 7.87733 44.3811 8.036C44.1011 8.19467 43.8818 8.40933 43.7231 8.68C43.5738 8.95067 43.4991 9.24933 43.4991 9.576V13.286C43.4991 13.4913 43.4291 13.664 43.2891 13.804C43.1585 13.9347 42.9951 14 42.7991 14C42.5938 14 42.4258 13.9347 42.2951 13.804C42.1645 13.664 42.0991 13.4913 42.0991 13.286V4.354C42.0991 4.14867 42.1645 3.98067 42.2951 3.85C42.4258 3.71 42.5938 3.64 42.7991 3.64C42.9951 3.64 43.1585 3.71 43.2891 3.85C43.4291 3.98067 43.4991 4.14867 43.4991 4.354V8.176L43.2471 8.316C43.3125 8.11067 43.4198 7.90067 43.5691 7.686C43.7278 7.47133 43.9191 7.27533 44.1431 7.098C44.3765 6.92067 44.6331 6.78067 44.9131 6.678C45.1931 6.566 45.4918 6.51 45.8091 6.51ZM55.7082 6.636C55.9042 6.636 56.0676 6.706 56.1982 6.846C56.3382 6.97667 56.4082 7.14467 56.4082 7.35V11.032C56.4082 12.0027 56.1376 12.7633 55.5962 13.314C55.0549 13.8553 54.2896 14.126 53.3002 14.126C52.3202 14.126 51.5596 13.8553 51.0182 13.314C50.4862 12.7633 50.2202 12.0027 50.2202 11.032V7.35C50.2202 7.14467 50.2856 6.97667 50.4162 6.846C50.5469 6.706 50.7149 6.636 50.9202 6.636C51.1162 6.636 51.2796 6.706 51.4102 6.846C51.5502 6.97667 51.6202 7.14467 51.6202 7.35V11.032C51.6202 11.6387 51.7602 12.0913 52.0402 12.39C52.3296 12.6887 52.7496 12.838 53.3002 12.838C53.8602 12.838 54.2849 12.6887 54.5742 12.39C54.8636 12.0913 55.0082 11.6387 55.0082 11.032V7.35C55.0082 7.14467 55.0736 6.97667 55.2042 6.846C55.3349 6.706 55.5029 6.636 55.7082 6.636ZM59.951 14.308C59.951 14.812 59.8483 15.246 59.643 15.61C59.4377 15.974 59.167 16.254 58.831 16.45C58.495 16.646 58.1357 16.744 57.753 16.744C57.557 16.744 57.3983 16.6787 57.277 16.548C57.1557 16.4267 57.095 16.2773 57.095 16.1V15.974C57.095 15.806 57.1557 15.6707 57.277 15.568C57.389 15.4653 57.529 15.386 57.697 15.33C57.9117 15.2647 58.0797 15.1667 58.201 15.036C58.3317 14.9147 58.4203 14.756 58.467 14.56C58.523 14.3733 58.551 14.168 58.551 13.944V7.336C58.551 7.14 58.6163 6.97667 58.747 6.846C58.8777 6.706 59.0457 6.636 59.251 6.636C59.4563 6.636 59.6243 6.706 59.755 6.846C59.8857 6.97667 59.951 7.14 59.951 7.336V14.308ZM59.223 5.656C58.9523 5.656 58.7563 5.60933 58.635 5.516C58.5137 5.41333 58.453 5.24533 58.453 5.012V4.788C58.453 4.55467 58.5183 4.39133 58.649 4.298C58.7797 4.20467 58.9757 4.158 59.237 4.158C59.517 4.158 59.7177 4.20933 59.839 4.312C59.9603 4.40533 60.021 4.564 60.021 4.788V5.012C60.021 5.25467 59.9557 5.42267 59.825 5.516C59.7037 5.60933 59.503 5.656 59.223 5.656Z" fill="#002F35"/>
<path opacity="0.76" d="M34.76 30C34.616 30 34.496 29.952 34.4 29.856C34.304 29.76 34.256 29.644 34.256 29.508V22.68L34.4 22.848L33.044 23.784C32.964 23.84 32.872 23.868 32.768 23.868C32.632 23.868 32.516 23.82 32.42 23.724C32.324 23.62 32.276 23.504 32.276 23.376C32.276 23.2 32.36 23.06 32.528 22.956L34.436 21.696C34.5 21.656 34.564 21.628 34.628 21.612C34.692 21.596 34.756 21.592 34.82 21.6C34.964 21.6 35.076 21.648 35.156 21.744C35.244 21.832 35.288 21.944 35.288 22.08V29.508C35.288 29.644 35.236 29.76 35.132 29.856C35.036 29.952 34.912 30 34.76 30ZM42.1397 29.1C42.2677 29.1 42.3757 29.144 42.4637 29.232C42.5517 29.32 42.5957 29.428 42.5957 29.556C42.5957 29.684 42.5517 29.792 42.4637 29.88C42.3757 29.96 42.2677 30 42.1397 30H37.7837C37.6397 30 37.5197 29.96 37.4237 29.88C37.3357 29.792 37.2917 29.676 37.2917 29.532C37.2917 29.404 37.3397 29.288 37.4357 29.184L40.1477 26.22C40.5477 25.788 40.8477 25.384 41.0477 25.008C41.2557 24.624 41.3597 24.284 41.3597 23.988C41.3597 23.5 41.2117 23.112 40.9157 22.824C40.6277 22.528 40.2397 22.38 39.7517 22.38C39.5357 22.38 39.3197 22.428 39.1037 22.524C38.8877 22.612 38.6917 22.736 38.5157 22.896C38.3397 23.048 38.1957 23.22 38.0837 23.412C38.0197 23.516 37.9517 23.584 37.8797 23.616C37.8157 23.64 37.7477 23.652 37.6757 23.652C37.5557 23.652 37.4477 23.612 37.3517 23.532C37.2557 23.444 37.2077 23.344 37.2077 23.232C37.2077 23.144 37.2317 23.064 37.2797 22.992C37.3277 22.912 37.3917 22.824 37.4717 22.728C37.6397 22.496 37.8477 22.288 38.0957 22.104C38.3517 21.912 38.6277 21.76 38.9237 21.648C39.2277 21.536 39.5237 21.48 39.8117 21.48C40.3237 21.48 40.7677 21.58 41.1437 21.78C41.5277 21.98 41.8237 22.264 42.0317 22.632C42.2397 23 42.3437 23.432 42.3437 23.928C42.3437 24.352 42.2157 24.82 41.9597 25.332C41.7037 25.844 41.3277 26.364 40.8317 26.892L38.7317 29.22L38.6117 29.1H42.1397ZM44.3788 28.608C44.4268 28.608 44.4788 28.62 44.5348 28.644C44.5988 28.66 44.6668 28.7 44.7388 28.764C44.8988 28.908 45.0868 29.024 45.3028 29.112C45.5188 29.2 45.7668 29.244 46.0468 29.244C46.3908 29.244 46.7068 29.168 46.9948 29.016C47.2828 28.856 47.5148 28.632 47.6908 28.344C47.8748 28.056 47.9668 27.724 47.9668 27.348C47.9668 26.94 47.8748 26.608 47.6908 26.352C47.5148 26.088 47.2868 25.896 47.0068 25.776C46.7348 25.648 46.4468 25.584 46.1428 25.584C46.0308 25.584 45.9268 25.592 45.8308 25.608C45.7348 25.624 45.6428 25.644 45.5548 25.668C45.4748 25.692 45.3988 25.704 45.3268 25.704C45.1988 25.704 45.0988 25.66 45.0268 25.572C44.9548 25.484 44.9188 25.376 44.9188 25.248C44.9188 25.176 44.9308 25.112 44.9548 25.056C44.9868 24.992 45.0348 24.924 45.0988 24.852L47.4268 22.332L47.6188 22.56H44.2108C44.0828 22.56 43.9748 22.516 43.8868 22.428C43.7988 22.34 43.7548 22.232 43.7548 22.104C43.7548 21.976 43.7988 21.872 43.8868 21.792C43.9748 21.704 44.0828 21.66 44.2108 21.66H48.1228C48.2988 21.66 48.4268 21.712 48.5068 21.816C48.5868 21.912 48.6268 22.02 48.6268 22.14C48.6268 22.212 48.6068 22.28 48.5668 22.344C48.5348 22.408 48.4908 22.468 48.4348 22.524L46.1068 25.056L45.8308 24.816C45.8708 24.784 45.9628 24.756 46.1068 24.732C46.2508 24.7 46.3708 24.684 46.4668 24.684C46.9148 24.684 47.3268 24.792 47.7028 25.008C48.0788 25.224 48.3788 25.528 48.6028 25.92C48.8268 26.312 48.9388 26.768 48.9388 27.288C48.9388 27.864 48.8068 28.364 48.5428 28.788C48.2788 29.212 47.9148 29.54 47.4508 29.772C46.9948 30.004 46.4788 30.12 45.9028 30.12C45.5828 30.12 45.2668 30.072 44.9548 29.976C44.6508 29.872 44.3868 29.724 44.1628 29.532C44.0588 29.476 43.9868 29.412 43.9468 29.34C43.9148 29.268 43.8988 29.196 43.8988 29.124C43.8988 29.004 43.9428 28.888 44.0308 28.776C44.1268 28.664 44.2428 28.608 44.3788 28.608ZM54.4074 21.588C54.4794 21.588 54.5554 21.608 54.6354 21.648C54.7234 21.688 54.7914 21.74 54.8394 21.804L58.0194 26.616L57.5994 26.604L60.8154 21.804C60.9194 21.652 61.0554 21.58 61.2234 21.588C61.3514 21.596 61.4634 21.644 61.5594 21.732C61.6554 21.82 61.7034 21.936 61.7034 22.08V29.508C61.7034 29.644 61.6554 29.76 61.5594 29.856C61.4634 29.952 61.3434 30 61.1994 30C61.0554 30 60.9354 29.952 60.8394 29.856C60.7434 29.76 60.6954 29.644 60.6954 29.508V22.992L60.9954 23.052L58.1634 27.36C58.1154 27.416 58.0554 27.464 57.9834 27.504C57.9194 27.544 57.8514 27.564 57.7794 27.564C57.7074 27.564 57.6354 27.544 57.5634 27.504C57.4914 27.464 57.4314 27.416 57.3834 27.36L54.5874 23.052L54.8394 22.74V29.508C54.8394 29.644 54.7954 29.76 54.7074 29.856C54.6194 29.952 54.5074 30 54.3714 30C54.2354 30 54.1234 29.952 54.0354 29.856C53.9554 29.76 53.9154 29.644 53.9154 29.508V22.08C53.9154 21.952 53.9594 21.84 54.0474 21.744C54.1434 21.64 54.2634 21.588 54.4074 21.588ZM68.75 23.736C68.886 23.736 68.998 23.784 69.086 23.88C69.182 23.968 69.23 24.08 69.23 24.216V29.508C69.23 29.644 69.182 29.76 69.086 29.856C68.998 29.952 68.886 30 68.75 30C68.606 30 68.49 29.952 68.402 29.856C68.314 29.76 68.27 29.644 68.27 29.508V28.368L68.498 28.344C68.498 28.52 68.438 28.712 68.318 28.92C68.198 29.128 68.034 29.324 67.826 29.508C67.618 29.684 67.37 29.832 67.082 29.952C66.802 30.064 66.498 30.12 66.17 30.12C65.626 30.12 65.138 29.98 64.706 29.7C64.274 29.412 63.93 29.024 63.674 28.536C63.426 28.048 63.302 27.492 63.302 26.868C63.302 26.236 63.426 25.68 63.674 25.2C63.93 24.712 64.274 24.332 64.706 24.06C65.138 23.78 65.618 23.64 66.146 23.64C66.49 23.64 66.81 23.696 67.106 23.808C67.402 23.92 67.658 24.072 67.874 24.264C68.098 24.456 68.27 24.668 68.39 24.9C68.518 25.132 68.582 25.364 68.582 25.596L68.27 25.524V24.216C68.27 24.08 68.314 23.968 68.402 23.88C68.49 23.784 68.606 23.736 68.75 23.736ZM66.278 29.232C66.678 29.232 67.03 29.128 67.334 28.92C67.646 28.712 67.886 28.432 68.054 28.08C68.23 27.72 68.318 27.316 68.318 26.868C68.318 26.428 68.23 26.032 68.054 25.68C67.886 25.32 67.646 25.04 67.334 24.84C67.03 24.632 66.678 24.528 66.278 24.528C65.886 24.528 65.534 24.628 65.222 24.828C64.918 25.028 64.678 25.304 64.502 25.656C64.326 26.008 64.238 26.412 64.238 26.868C64.238 27.316 64.322 27.72 64.49 28.08C64.666 28.432 64.906 28.712 65.21 28.92C65.522 29.128 65.878 29.232 66.278 29.232ZM71.9331 29.508C71.9331 29.644 71.8851 29.76 71.7891 29.856C71.7011 29.952 71.5891 30 71.4531 30C71.3091 30 71.1931 29.952 71.1051 29.856C71.0171 29.76 70.9731 29.644 70.9731 29.508V24.18C70.9731 24.044 71.0171 23.932 71.1051 23.844C71.2011 23.748 71.3171 23.7 71.4531 23.7C71.5891 23.7 71.7011 23.748 71.7891 23.844C71.8851 23.932 71.9331 24.044 71.9331 24.18V29.508ZM71.4531 22.896C71.2531 22.896 71.1051 22.856 71.0091 22.776C70.9131 22.696 70.8651 22.572 70.8651 22.404V22.236C70.8651 22.068 70.9171 21.944 71.0211 21.864C71.1251 21.784 71.2731 21.744 71.4651 21.744C71.6571 21.744 71.8011 21.784 71.8971 21.864C71.9931 21.944 72.0411 22.068 72.0411 22.236V22.404C72.0411 22.572 71.9891 22.696 71.8851 22.776C71.7891 22.856 71.6451 22.896 71.4531 22.896ZM76.7415 23.64C77.2855 23.64 77.7135 23.752 78.0255 23.976C78.3375 24.2 78.5575 24.5 78.6855 24.876C78.8215 25.252 78.8895 25.672 78.8895 26.136V29.508C78.8895 29.644 78.8415 29.76 78.7455 29.856C78.6575 29.952 78.5455 30 78.4095 30C78.2735 30 78.1575 29.952 78.0615 29.856C77.9735 29.76 77.9295 29.644 77.9295 29.508V26.16C77.9295 25.856 77.8815 25.584 77.7855 25.344C77.6975 25.096 77.5455 24.9 77.3295 24.756C77.1215 24.604 76.8335 24.528 76.4655 24.528C76.1295 24.528 75.8215 24.604 75.5415 24.756C75.2615 24.9 75.0375 25.096 74.8695 25.344C74.7015 25.584 74.6175 25.856 74.6175 26.16V29.508C74.6175 29.644 74.5695 29.76 74.4735 29.856C74.3855 29.952 74.2735 30 74.1375 30C74.0015 30 73.8855 29.952 73.7895 29.856C73.7015 29.76 73.6575 29.644 73.6575 29.508V24.276C73.6575 24.14 73.7015 24.028 73.7895 23.94C73.8855 23.844 74.0015 23.796 74.1375 23.796C74.2815 23.796 74.3975 23.844 74.4855 23.94C74.5735 24.028 74.6175 24.14 74.6175 24.276V25.128L74.3775 25.392C74.4175 25.184 74.5095 24.976 74.6535 24.768C74.7975 24.552 74.9775 24.36 75.1935 24.192C75.4095 24.024 75.6495 23.892 75.9135 23.796C76.1775 23.692 76.4535 23.64 76.7415 23.64ZM86.586 30.12C85.994 30.12 85.474 30.032 85.026 29.856C84.578 29.68 84.146 29.4 83.73 29.016C83.674 28.96 83.626 28.9 83.586 28.836C83.554 28.764 83.538 28.688 83.538 28.608C83.538 28.48 83.582 28.368 83.67 28.272C83.766 28.168 83.882 28.116 84.018 28.116C84.13 28.116 84.23 28.16 84.318 28.248C84.63 28.552 84.966 28.784 85.326 28.944C85.694 29.104 86.106 29.184 86.562 29.184C86.914 29.184 87.23 29.128 87.51 29.016C87.798 28.904 88.026 28.748 88.194 28.548C88.362 28.348 88.446 28.116 88.446 27.852C88.438 27.532 88.342 27.268 88.158 27.06C87.982 26.852 87.734 26.68 87.414 26.544C87.102 26.4 86.738 26.28 86.322 26.184C85.954 26.096 85.614 25.988 85.302 25.86C84.998 25.732 84.734 25.576 84.51 25.392C84.286 25.2 84.11 24.972 83.982 24.708C83.862 24.436 83.802 24.12 83.802 23.76C83.802 23.304 83.922 22.904 84.162 22.56C84.402 22.216 84.734 21.952 85.158 21.768C85.582 21.576 86.07 21.48 86.622 21.48C87.11 21.48 87.57 21.56 88.002 21.72C88.442 21.88 88.794 22.1 89.058 22.38C89.218 22.532 89.298 22.68 89.298 22.824C89.298 22.944 89.246 23.056 89.142 23.16C89.046 23.256 88.934 23.304 88.806 23.304C88.718 23.304 88.638 23.272 88.566 23.208C88.43 23.056 88.258 22.92 88.05 22.8C87.842 22.68 87.614 22.584 87.366 22.512C87.118 22.44 86.87 22.404 86.622 22.404C86.254 22.404 85.93 22.46 85.65 22.572C85.37 22.676 85.15 22.828 84.99 23.028C84.838 23.22 84.762 23.452 84.762 23.724C84.762 24.028 84.85 24.28 85.026 24.48C85.202 24.672 85.438 24.832 85.734 24.96C86.03 25.08 86.358 25.188 86.718 25.284C87.11 25.38 87.47 25.492 87.798 25.62C88.134 25.74 88.422 25.892 88.662 26.076C88.902 26.26 89.086 26.496 89.214 26.784C89.35 27.064 89.418 27.412 89.418 27.828C89.418 28.268 89.294 28.66 89.046 29.004C88.798 29.348 88.458 29.62 88.026 29.82C87.602 30.012 87.122 30.112 86.586 30.12ZM90.6207 23.832H93.4407C93.5687 23.832 93.6727 23.876 93.7527 23.964C93.8407 24.052 93.8847 24.156 93.8847 24.276C93.8847 24.404 93.8407 24.512 93.7527 24.6C93.6727 24.68 93.5687 24.72 93.4407 24.72H90.6207C90.5007 24.72 90.3967 24.676 90.3087 24.588C90.2207 24.5 90.1767 24.392 90.1767 24.264C90.1767 24.144 90.2207 24.044 90.3087 23.964C90.3967 23.876 90.5007 23.832 90.6207 23.832ZM91.8807 22.2C92.0167 22.2 92.1287 22.248 92.2167 22.344C92.3047 22.432 92.3487 22.544 92.3487 22.68V28.476C92.3487 28.668 92.3767 28.812 92.4327 28.908C92.4887 29.004 92.5607 29.072 92.6487 29.112C92.7447 29.144 92.8367 29.16 92.9247 29.16C93.0047 29.16 93.0727 29.148 93.1287 29.124C93.1927 29.092 93.2647 29.076 93.3447 29.076C93.4247 29.076 93.4967 29.116 93.5607 29.196C93.6327 29.268 93.6687 29.364 93.6687 29.484C93.6687 29.628 93.5847 29.752 93.4167 29.856C93.2487 29.952 93.0607 30 92.8527 30C92.7407 30 92.6007 29.992 92.4327 29.976C92.2727 29.96 92.1127 29.908 91.9527 29.82C91.7927 29.732 91.6567 29.588 91.5447 29.388C91.4407 29.18 91.3887 28.892 91.3887 28.524V22.68C91.3887 22.544 91.4367 22.432 91.5327 22.344C91.6287 22.248 91.7447 22.2 91.8807 22.2ZM95.7 30C95.564 30 95.448 29.952 95.352 29.856C95.264 29.76 95.22 29.644 95.22 29.508V24.276C95.22 24.14 95.264 24.028 95.352 23.94C95.448 23.844 95.564 23.796 95.7 23.796C95.844 23.796 95.96 23.844 96.048 23.94C96.136 24.028 96.18 24.14 96.18 24.276V25.86L96.036 25.608C96.084 25.36 96.168 25.12 96.288 24.888C96.416 24.648 96.576 24.436 96.768 24.252C96.96 24.06 97.18 23.912 97.428 23.808C97.676 23.696 97.948 23.64 98.244 23.64C98.42 23.64 98.58 23.684 98.724 23.772C98.876 23.852 98.952 23.968 98.952 24.12C98.952 24.288 98.908 24.412 98.82 24.492C98.732 24.572 98.632 24.612 98.52 24.612C98.416 24.612 98.316 24.592 98.22 24.552C98.124 24.504 98.004 24.48 97.86 24.48C97.66 24.48 97.46 24.536 97.26 24.648C97.068 24.752 96.888 24.904 96.72 25.104C96.56 25.304 96.428 25.532 96.324 25.788C96.228 26.036 96.18 26.304 96.18 26.592V29.508C96.18 29.644 96.132 29.76 96.036 29.856C95.948 29.952 95.836 30 95.7 30ZM102.635 30.12C101.995 30.12 101.435 29.984 100.955 29.712C100.475 29.44 100.099 29.068 99.8269 28.596C99.5629 28.116 99.4309 27.564 99.4309 26.94C99.4309 26.244 99.5669 25.652 99.8389 25.164C100.119 24.668 100.479 24.292 100.919 24.036C101.367 23.772 101.839 23.64 102.335 23.64C102.703 23.64 103.059 23.708 103.403 23.844C103.747 23.98 104.051 24.18 104.315 24.444C104.579 24.7 104.791 25.012 104.951 25.38C105.111 25.74 105.195 26.144 105.203 26.592C105.203 26.72 105.155 26.828 105.059 26.916C104.963 27.004 104.851 27.048 104.723 27.048H99.9829L99.7669 26.22H104.387L104.195 26.388V26.124C104.163 25.796 104.051 25.516 103.859 25.284C103.675 25.044 103.447 24.86 103.175 24.732C102.911 24.604 102.631 24.54 102.335 24.54C102.095 24.54 101.855 24.584 101.615 24.672C101.383 24.752 101.171 24.888 100.979 25.08C100.795 25.264 100.643 25.504 100.523 25.8C100.411 26.096 100.355 26.452 100.355 26.868C100.355 27.332 100.447 27.74 100.631 28.092C100.823 28.444 101.087 28.724 101.423 28.932C101.759 29.132 102.151 29.232 102.599 29.232C102.879 29.232 103.123 29.196 103.331 29.124C103.539 29.052 103.719 28.964 103.871 28.86C104.023 28.748 104.151 28.636 104.255 28.524C104.359 28.452 104.459 28.416 104.555 28.416C104.675 28.416 104.771 28.456 104.843 28.536C104.923 28.616 104.963 28.712 104.963 28.824C104.963 28.96 104.899 29.08 104.771 29.184C104.547 29.432 104.243 29.652 103.859 29.844C103.475 30.028 103.067 30.12 102.635 30.12ZM109.514 30.12C108.874 30.12 108.314 29.984 107.834 29.712C107.354 29.44 106.978 29.068 106.706 28.596C106.442 28.116 106.31 27.564 106.31 26.94C106.31 26.244 106.446 25.652 106.718 25.164C106.998 24.668 107.358 24.292 107.798 24.036C108.246 23.772 108.718 23.64 109.214 23.64C109.582 23.64 109.938 23.708 110.282 23.844C110.626 23.98 110.93 24.18 111.194 24.444C111.458 24.7 111.67 25.012 111.83 25.38C111.99 25.74 112.074 26.144 112.082 26.592C112.082 26.72 112.034 26.828 111.938 26.916C111.842 27.004 111.73 27.048 111.602 27.048H106.862L106.646 26.22H111.266L111.074 26.388V26.124C111.042 25.796 110.93 25.516 110.738 25.284C110.554 25.044 110.326 24.86 110.054 24.732C109.79 24.604 109.51 24.54 109.214 24.54C108.974 24.54 108.734 24.584 108.494 24.672C108.262 24.752 108.05 24.888 107.858 25.08C107.674 25.264 107.522 25.504 107.402 25.8C107.29 26.096 107.234 26.452 107.234 26.868C107.234 27.332 107.326 27.74 107.51 28.092C107.702 28.444 107.966 28.724 108.302 28.932C108.638 29.132 109.03 29.232 109.478 29.232C109.758 29.232 110.002 29.196 110.21 29.124C110.418 29.052 110.598 28.964 110.75 28.86C110.902 28.748 111.03 28.636 111.134 28.524C111.238 28.452 111.338 28.416 111.434 28.416C111.554 28.416 111.65 28.456 111.722 28.536C111.802 28.616 111.842 28.712 111.842 28.824C111.842 28.96 111.778 29.08 111.65 29.184C111.426 29.432 111.122 29.652 110.738 29.844C110.354 30.028 109.946 30.12 109.514 30.12ZM113.285 23.832H116.105C116.233 23.832 116.337 23.876 116.417 23.964C116.505 24.052 116.549 24.156 116.549 24.276C116.549 24.404 116.505 24.512 116.417 24.6C116.337 24.68 116.233 24.72 116.105 24.72H113.285C113.165 24.72 113.061 24.676 112.973 24.588C112.885 24.5 112.841 24.392 112.841 24.264C112.841 24.144 112.885 24.044 112.973 23.964C113.061 23.876 113.165 23.832 113.285 23.832ZM114.545 22.2C114.681 22.2 114.793 22.248 114.881 22.344C114.969 22.432 115.013 22.544 115.013 22.68V28.476C115.013 28.668 115.041 28.812 115.097 28.908C115.153 29.004 115.225 29.072 115.313 29.112C115.409 29.144 115.501 29.16 115.589 29.16C115.669 29.16 115.737 29.148 115.793 29.124C115.857 29.092 115.929 29.076 116.009 29.076C116.089 29.076 116.161 29.116 116.225 29.196C116.297 29.268 116.333 29.364 116.333 29.484C116.333 29.628 116.249 29.752 116.081 29.856C115.913 29.952 115.725 30 115.517 30C115.405 30 115.265 29.992 115.097 29.976C114.937 29.96 114.777 29.908 114.617 29.82C114.457 29.732 114.321 29.588 114.209 29.388C114.105 29.18 114.053 28.892 114.053 28.524V22.68C114.053 22.544 114.101 22.432 114.197 22.344C114.293 22.248 114.409 22.2 114.545 22.2ZM119.132 30.024C119.132 30.256 119.064 30.484 118.928 30.708C118.8 30.94 118.636 31.128 118.436 31.272C118.236 31.424 118.032 31.5 117.824 31.5C117.752 31.5 117.68 31.472 117.608 31.416C117.536 31.368 117.5 31.28 117.5 31.152C117.5 31.016 117.544 30.936 117.632 30.912C117.72 30.888 117.816 30.852 117.92 30.804C118.04 30.74 118.132 30.66 118.196 30.564C118.268 30.476 118.304 30.372 118.304 30.252C118.304 30.156 118.268 30.076 118.196 30.012C118.132 29.956 118.052 29.928 117.956 29.928C117.9 29.928 117.84 29.936 117.776 29.952C117.72 29.968 117.672 29.992 117.632 30.024C117.576 29.984 117.528 29.936 117.488 29.88C117.448 29.824 117.428 29.752 117.428 29.664C117.436 29.488 117.524 29.34 117.692 29.22C117.86 29.092 118.052 29.028 118.268 29.028C118.524 29.028 118.732 29.124 118.892 29.316C119.052 29.508 119.132 29.744 119.132 30.024ZM126.909 22.848L124.089 29.712C124.057 29.808 124.001 29.884 123.921 29.94C123.841 29.996 123.757 30.024 123.669 30.024C123.517 30.024 123.405 29.984 123.333 29.904C123.261 29.824 123.225 29.728 123.225 29.616C123.217 29.56 123.225 29.5 123.249 29.436L126.357 21.876C126.397 21.764 126.457 21.684 126.537 21.636C126.625 21.58 126.721 21.556 126.825 21.564C126.929 21.564 127.021 21.592 127.101 21.648C127.189 21.704 127.249 21.78 127.281 21.876L130.377 29.364C130.401 29.428 130.413 29.492 130.413 29.556C130.413 29.7 130.365 29.816 130.269 29.904C130.173 29.984 130.065 30.024 129.945 30.024C129.849 30.024 129.761 29.996 129.681 29.94C129.601 29.884 129.541 29.804 129.501 29.7L126.645 22.836L126.909 22.848ZM124.689 27.756L125.097 26.82H128.661L128.841 27.756H124.689ZM134.644 23.64C135.188 23.64 135.616 23.752 135.928 23.976C136.24 24.2 136.46 24.5 136.588 24.876C136.724 25.252 136.792 25.672 136.792 26.136V29.508C136.792 29.644 136.744 29.76 136.648 29.856C136.56 29.952 136.448 30 136.312 30C136.176 30 136.06 29.952 135.964 29.856C135.876 29.76 135.832 29.644 135.832 29.508V26.16C135.832 25.856 135.784 25.584 135.688 25.344C135.6 25.096 135.448 24.9 135.232 24.756C135.024 24.604 134.736 24.528 134.368 24.528C134.032 24.528 133.724 24.604 133.444 24.756C133.164 24.9 132.94 25.096 132.772 25.344C132.604 25.584 132.52 25.856 132.52 26.16V29.508C132.52 29.644 132.472 29.76 132.376 29.856C132.288 29.952 132.176 30 132.04 30C131.904 30 131.788 29.952 131.692 29.856C131.604 29.76 131.56 29.644 131.56 29.508V24.276C131.56 24.14 131.604 24.028 131.692 23.94C131.788 23.844 131.904 23.796 132.04 23.796C132.184 23.796 132.3 23.844 132.388 23.94C132.476 24.028 132.52 24.14 132.52 24.276V25.128L132.28 25.392C132.32 25.184 132.412 24.976 132.556 24.768C132.7 24.552 132.88 24.36 133.096 24.192C133.312 24.024 133.552 23.892 133.816 23.796C134.08 23.692 134.356 23.64 134.644 23.64ZM143.153 23.7C143.289 23.7 143.401 23.748 143.489 23.844C143.585 23.932 143.633 24.044 143.633 24.18V29.412C143.633 30.084 143.501 30.64 143.237 31.08C142.973 31.528 142.617 31.86 142.169 32.076C141.729 32.292 141.229 32.4 140.669 32.4C140.357 32.4 140.057 32.368 139.769 32.304C139.481 32.24 139.245 32.156 139.061 32.052C138.909 31.98 138.801 31.888 138.737 31.776C138.681 31.672 138.673 31.56 138.713 31.44C138.769 31.296 138.849 31.196 138.953 31.14C139.065 31.084 139.181 31.084 139.301 31.14C139.429 31.196 139.613 31.272 139.853 31.368C140.101 31.472 140.377 31.524 140.681 31.524C141.097 31.524 141.453 31.444 141.749 31.284C142.045 31.124 142.273 30.888 142.433 30.576C142.593 30.272 142.673 29.892 142.673 29.436V28.584L142.817 28.884C142.689 29.132 142.517 29.348 142.301 29.532C142.085 29.716 141.837 29.86 141.557 29.964C141.277 30.068 140.969 30.12 140.633 30.12C140.177 30.12 139.789 30.024 139.469 29.832C139.157 29.632 138.917 29.36 138.749 29.016C138.589 28.664 138.509 28.26 138.509 27.804V24.18C138.509 24.044 138.553 23.932 138.641 23.844C138.737 23.748 138.853 23.7 138.989 23.7C139.133 23.7 139.249 23.748 139.337 23.844C139.425 23.932 139.469 24.044 139.469 24.18V27.588C139.469 28.132 139.589 28.544 139.829 28.824C140.069 29.096 140.441 29.232 140.945 29.232C141.265 29.232 141.553 29.16 141.809 29.016C142.073 28.872 142.281 28.676 142.433 28.428C142.593 28.172 142.673 27.892 142.673 27.588V24.18C142.673 24.044 142.717 23.932 142.805 23.844C142.893 23.748 143.009 23.7 143.153 23.7ZM145.171 23.832H147.991C148.119 23.832 148.223 23.876 148.303 23.964C148.391 24.052 148.435 24.156 148.435 24.276C148.435 24.404 148.391 24.512 148.303 24.6C148.223 24.68 148.119 24.72 147.991 24.72H145.171C145.051 24.72 144.947 24.676 144.859 24.588C144.771 24.5 144.727 24.392 144.727 24.264C144.727 24.144 144.771 24.044 144.859 23.964C144.947 23.876 145.051 23.832 145.171 23.832ZM146.431 22.2C146.567 22.2 146.679 22.248 146.767 22.344C146.855 22.432 146.899 22.544 146.899 22.68V28.476C146.899 28.668 146.927 28.812 146.983 28.908C147.039 29.004 147.111 29.072 147.199 29.112C147.295 29.144 147.387 29.16 147.475 29.16C147.555 29.16 147.623 29.148 147.679 29.124C147.743 29.092 147.815 29.076 147.895 29.076C147.975 29.076 148.047 29.116 148.111 29.196C148.183 29.268 148.219 29.364 148.219 29.484C148.219 29.628 148.135 29.752 147.967 29.856C147.799 29.952 147.611 30 147.403 30C147.291 30 147.151 29.992 146.983 29.976C146.823 29.96 146.663 29.908 146.503 29.82C146.343 29.732 146.207 29.588 146.095 29.388C145.991 29.18 145.939 28.892 145.939 28.524V22.68C145.939 22.544 145.987 22.432 146.083 22.344C146.179 22.248 146.295 22.2 146.431 22.2ZM155.604 26.88C155.604 27.504 155.464 28.06 155.184 28.548C154.912 29.036 154.54 29.42 154.068 29.7C153.604 29.98 153.08 30.12 152.496 30.12C151.912 30.12 151.384 29.98 150.912 29.7C150.44 29.42 150.064 29.036 149.784 28.548C149.512 28.06 149.376 27.504 149.376 26.88C149.376 26.256 149.512 25.7 149.784 25.212C150.064 24.724 150.44 24.34 150.912 24.06C151.384 23.78 151.912 23.64 152.496 23.64C153.08 23.64 153.604 23.78 154.068 24.06C154.54 24.34 154.912 24.724 155.184 25.212C155.464 25.7 155.604 26.256 155.604 26.88ZM154.644 26.88C154.644 26.416 154.548 26.008 154.356 25.656C154.172 25.304 153.916 25.028 153.588 24.828C153.268 24.628 152.904 24.528 152.496 24.528C152.088 24.528 151.72 24.628 151.392 24.828C151.072 25.028 150.816 25.304 150.624 25.656C150.432 26.008 150.336 26.416 150.336 26.88C150.336 27.336 150.432 27.74 150.624 28.092C150.816 28.444 151.072 28.724 151.392 28.932C151.72 29.132 152.088 29.232 152.496 29.232C152.904 29.232 153.268 29.132 153.588 28.932C153.916 28.724 154.172 28.444 154.356 28.092C154.548 27.74 154.644 27.336 154.644 26.88ZM164.368 23.688C164.496 23.688 164.604 23.732 164.692 23.82C164.788 23.908 164.836 24.024 164.836 24.168C164.836 24.2 164.832 24.236 164.824 24.276C164.824 24.308 164.816 24.34 164.8 24.372L162.952 29.688C162.912 29.792 162.844 29.872 162.748 29.928C162.66 29.984 162.564 30.008 162.46 30C162.276 29.992 162.136 29.888 162.04 29.688L160.528 25.896L160.768 25.932L159.4 29.688C159.312 29.888 159.172 29.992 158.98 30C158.876 30.008 158.776 29.984 158.68 29.928C158.584 29.872 158.52 29.792 158.488 29.688L156.604 24.372C156.58 24.3 156.568 24.232 156.568 24.168C156.568 24.04 156.612 23.928 156.7 23.832C156.788 23.736 156.908 23.688 157.06 23.688C157.156 23.688 157.244 23.712 157.324 23.76C157.404 23.808 157.46 23.884 157.492 23.988L159.112 28.716L158.86 28.704L160.264 25.104C160.344 24.904 160.492 24.804 160.708 24.804C160.82 24.804 160.908 24.832 160.972 24.888C161.044 24.936 161.096 25.008 161.128 25.104L162.592 28.704L162.292 28.728L163.912 23.988C163.984 23.788 164.136 23.688 164.368 23.688ZM169.214 23.64C169.758 23.64 170.186 23.752 170.498 23.976C170.81 24.2 171.03 24.5 171.158 24.876C171.294 25.252 171.362 25.672 171.362 26.136V29.508C171.362 29.644 171.314 29.76 171.218 29.856C171.13 29.952 171.018 30 170.882 30C170.746 30 170.63 29.952 170.534 29.856C170.446 29.76 170.402 29.644 170.402 29.508V26.16C170.402 25.856 170.354 25.584 170.258 25.344C170.17 25.096 170.018 24.9 169.802 24.756C169.594 24.604 169.306 24.528 168.938 24.528C168.602 24.528 168.294 24.604 168.014 24.756C167.734 24.9 167.51 25.096 167.342 25.344C167.174 25.584 167.09 25.856 167.09 26.16V29.508C167.09 29.644 167.042 29.76 166.946 29.856C166.858 29.952 166.746 30 166.61 30C166.474 30 166.358 29.952 166.262 29.856C166.174 29.76 166.13 29.644 166.13 29.508V24.276C166.13 24.14 166.174 24.028 166.262 23.94C166.358 23.844 166.474 23.796 166.61 23.796C166.754 23.796 166.87 23.844 166.958 23.94C167.046 24.028 167.09 24.14 167.09 24.276V25.128L166.85 25.392C166.89 25.184 166.982 24.976 167.126 24.768C167.27 24.552 167.45 24.36 167.666 24.192C167.882 24.024 168.122 23.892 168.386 23.796C168.65 23.692 168.926 23.64 169.214 23.64ZM174.386 30.024C174.386 30.256 174.318 30.484 174.182 30.708C174.054 30.94 173.89 31.128 173.69 31.272C173.49 31.424 173.286 31.5 173.078 31.5C173.006 31.5 172.934 31.472 172.862 31.416C172.79 31.368 172.754 31.28 172.754 31.152C172.754 31.016 172.798 30.936 172.886 30.912C172.974 30.888 173.07 30.852 173.174 30.804C173.294 30.74 173.386 30.66 173.45 30.564C173.522 30.476 173.558 30.372 173.558 30.252C173.558 30.156 173.522 30.076 173.45 30.012C173.386 29.956 173.306 29.928 173.21 29.928C173.154 29.928 173.094 29.936 173.03 29.952C172.974 29.968 172.926 29.992 172.886 30.024C172.83 29.984 172.782 29.936 172.742 29.88C172.702 29.824 172.682 29.752 172.682 29.664C172.69 29.488 172.778 29.34 172.946 29.22C173.114 29.092 173.306 29.028 173.522 29.028C173.778 29.028 173.986 29.124 174.146 29.316C174.306 29.508 174.386 29.744 174.386 30.024ZM180.963 30C180.819 30 180.699 29.952 180.603 29.856C180.507 29.76 180.459 29.644 180.459 29.508V22.68L180.603 22.848L179.247 23.784C179.167 23.84 179.075 23.868 178.971 23.868C178.835 23.868 178.719 23.82 178.623 23.724C178.527 23.62 178.479 23.504 178.479 23.376C178.479 23.2 178.563 23.06 178.731 22.956L180.639 21.696C180.703 21.656 180.767 21.628 180.831 21.612C180.895 21.596 180.959 21.592 181.023 21.6C181.167 21.6 181.279 21.648 181.359 21.744C181.447 21.832 181.491 21.944 181.491 22.08V29.508C181.491 29.644 181.439 29.76 181.335 29.856C181.239 29.952 181.115 30 180.963 30ZM188.343 29.1C188.471 29.1 188.579 29.144 188.667 29.232C188.755 29.32 188.799 29.428 188.799 29.556C188.799 29.684 188.755 29.792 188.667 29.88C188.579 29.96 188.471 30 188.343 30H183.987C183.843 30 183.723 29.96 183.627 29.88C183.539 29.792 183.495 29.676 183.495 29.532C183.495 29.404 183.543 29.288 183.639 29.184L186.351 26.22C186.751 25.788 187.051 25.384 187.251 25.008C187.459 24.624 187.563 24.284 187.563 23.988C187.563 23.5 187.415 23.112 187.119 22.824C186.831 22.528 186.443 22.38 185.955 22.38C185.739 22.38 185.523 22.428 185.307 22.524C185.091 22.612 184.895 22.736 184.719 22.896C184.543 23.048 184.399 23.22 184.287 23.412C184.223 23.516 184.155 23.584 184.083 23.616C184.019 23.64 183.951 23.652 183.879 23.652C183.759 23.652 183.651 23.612 183.555 23.532C183.459 23.444 183.411 23.344 183.411 23.232C183.411 23.144 183.435 23.064 183.483 22.992C183.531 22.912 183.595 22.824 183.675 22.728C183.843 22.496 184.051 22.288 184.299 22.104C184.555 21.912 184.831 21.76 185.127 21.648C185.431 21.536 185.727 21.48 186.015 21.48C186.527 21.48 186.971 21.58 187.347 21.78C187.731 21.98 188.027 22.264 188.235 22.632C188.443 23 188.547 23.432 188.547 23.928C188.547 24.352 188.419 24.82 188.163 25.332C187.907 25.844 187.531 26.364 187.035 26.892L184.935 29.22L184.815 29.1H188.343ZM190.582 28.608C190.63 28.608 190.682 28.62 190.738 28.644C190.802 28.66 190.87 28.7 190.942 28.764C191.102 28.908 191.29 29.024 191.506 29.112C191.722 29.2 191.97 29.244 192.25 29.244C192.594 29.244 192.91 29.168 193.198 29.016C193.486 28.856 193.718 28.632 193.894 28.344C194.078 28.056 194.17 27.724 194.17 27.348C194.17 26.94 194.078 26.608 193.894 26.352C193.718 26.088 193.49 25.896 193.21 25.776C192.938 25.648 192.65 25.584 192.346 25.584C192.234 25.584 192.13 25.592 192.034 25.608C191.938 25.624 191.846 25.644 191.758 25.668C191.678 25.692 191.602 25.704 191.53 25.704C191.402 25.704 191.302 25.66 191.23 25.572C191.158 25.484 191.122 25.376 191.122 25.248C191.122 25.176 191.134 25.112 191.158 25.056C191.19 24.992 191.238 24.924 191.302 24.852L193.63 22.332L193.822 22.56H190.414C190.286 22.56 190.178 22.516 190.09 22.428C190.002 22.34 189.958 22.232 189.958 22.104C189.958 21.976 190.002 21.872 190.09 21.792C190.178 21.704 190.286 21.66 190.414 21.66H194.326C194.502 21.66 194.63 21.712 194.71 21.816C194.79 21.912 194.83 22.02 194.83 22.14C194.83 22.212 194.81 22.28 194.77 22.344C194.738 22.408 194.694 22.468 194.638 22.524L192.31 25.056L192.034 24.816C192.074 24.784 192.166 24.756 192.31 24.732C192.454 24.7 192.574 24.684 192.67 24.684C193.118 24.684 193.53 24.792 193.906 25.008C194.282 25.224 194.582 25.528 194.806 25.92C195.03 26.312 195.142 26.768 195.142 27.288C195.142 27.864 195.01 28.364 194.746 28.788C194.482 29.212 194.118 29.54 193.654 29.772C193.198 30.004 192.682 30.12 192.106 30.12C191.786 30.12 191.47 30.072 191.158 29.976C190.854 29.872 190.59 29.724 190.366 29.532C190.262 29.476 190.19 29.412 190.15 29.34C190.118 29.268 190.102 29.196 190.102 29.124C190.102 29.004 190.146 28.888 190.234 28.776C190.33 28.664 190.446 28.608 190.582 28.608ZM200.258 30C200.122 30 200.006 29.952 199.91 29.856C199.822 29.76 199.778 29.644 199.778 29.508V22.944L199.97 23.016L197.102 26.76L197.054 26.616H201.542C201.67 26.616 201.778 26.66 201.866 26.748C201.954 26.836 201.998 26.944 201.998 27.072C201.998 27.192 201.954 27.296 201.866 27.384C201.778 27.464 201.67 27.504 201.542 27.504H196.394C196.274 27.504 196.162 27.456 196.058 27.36C195.962 27.264 195.914 27.152 195.914 27.024C195.914 26.904 195.954 26.8 196.034 26.712L199.862 21.792C199.918 21.72 199.982 21.672 200.054 21.648C200.126 21.616 200.198 21.6 200.27 21.6C200.406 21.6 200.518 21.648 200.606 21.744C200.694 21.832 200.738 21.944 200.738 22.08V29.508C200.738 29.644 200.69 29.76 200.594 29.856C200.506 29.952 200.394 30 200.258 30ZM205.223 30.048C204.903 30.048 204.575 30 204.239 29.904C203.911 29.8 203.623 29.648 203.375 29.448C203.311 29.392 203.259 29.32 203.219 29.232C203.179 29.144 203.159 29.06 203.159 28.98C203.159 28.884 203.199 28.792 203.279 28.704C203.367 28.608 203.479 28.56 203.615 28.56C203.719 28.56 203.839 28.612 203.975 28.716C204.151 28.852 204.347 28.96 204.563 29.04C204.779 29.12 204.995 29.16 205.211 29.16C205.659 29.16 206.047 29.076 206.375 28.908C206.703 28.74 206.955 28.504 207.131 28.2C207.307 27.896 207.395 27.54 207.395 27.132C207.395 26.764 207.311 26.444 207.143 26.172C206.983 25.892 206.755 25.676 206.459 25.524C206.171 25.372 205.839 25.296 205.463 25.296C205.183 25.296 204.931 25.34 204.707 25.428C204.491 25.508 204.299 25.592 204.131 25.68C203.971 25.768 203.831 25.812 203.711 25.812C203.559 25.812 203.443 25.78 203.363 25.716C203.283 25.644 203.231 25.556 203.207 25.452C203.183 25.348 203.175 25.252 203.183 25.164L203.651 22.056C203.675 21.952 203.731 21.86 203.819 21.78C203.907 21.7 204.015 21.66 204.143 21.66H207.707C207.835 21.66 207.943 21.704 208.031 21.792C208.119 21.88 208.163 21.992 208.163 22.128C208.163 22.256 208.119 22.364 208.031 22.452C207.943 22.532 207.835 22.572 207.707 22.572H204.383L204.503 22.464L204.059 25.176L203.867 24.924C203.955 24.844 204.087 24.764 204.263 24.684C204.447 24.604 204.655 24.536 204.887 24.48C205.127 24.424 205.371 24.396 205.619 24.396C206.139 24.396 206.603 24.516 207.011 24.756C207.427 24.988 207.755 25.308 207.995 25.716C208.235 26.124 208.355 26.592 208.355 27.12C208.355 27.704 208.227 28.216 207.971 28.656C207.715 29.096 207.351 29.44 206.879 29.688C206.415 29.928 205.863 30.048 205.223 30.048Z" fill="#002F35"/>
<defs>
<clipPath id="clip0_277_10426">
<rect width="24" height="24" fill="white" transform="translate(0 4.5)"/>
</clipPath>
</defs>
</svg>
