<svg xmlns="http://www.w3.org/2000/svg" enable-background="new 0 0 3000 3000" viewBox="0 0 3000 3000"><path fill="#f4f4f2" d="M2668.377,1706.748c-75.538,612.353-597.602,1046.164-1168.378,1048.083  C929.223,2752.913,407.162,2319.1,331.623,1706.748c-75.94-610.006,445.813-1184.802,1168.376-1184.425  C2222.565,521.943,2744.32,1096.745,2668.377,1706.748z" class="colorF4F4F2 svgShape"/><path fill="#f9a08f" d="M1853.737,1538.143l65.785,157.998c119.841,14.135,206.461-30.464,258.123-70.54   c-26.566-59.597-56.489-121.781-89.619-184.271L1853.737,1538.143z" class="colorF9A08F svgShape"/><path fill="#253882" d="M2137.4,2560.544c-187.53,123.318-408.556,193.479-637.407,194.255        c-168.26-0.581-332.251-38.67-481.822-107.797l98.938-446.902l954.01,74.559L2137.4,2560.544z" class="color253882 svgShape"/><path fill="#262571" d="M2049.455,2598.891c7.954-62.725,11.575-144.204-32.85-130.365        c-44.425,13.902-79.409,78.762-190.116,52.896c-112.776-26.449-166.061,58.069-187.659,108.896        c-9.441,22.116-22.18,73.073-34.984,119.372c-34.402,3.233-68.998,4.98-103.853,5.109        c-34.467-0.129-68.804-1.81-102.818-5.043c10.734-34.467,16.942-68.675,15.52-94.088        c-2.91-50.634-7.566-156.556-63.372-178.348c-56.324-22.179-216.112-108.573-227.622-73.071        c-9.571,29.616-77.211,166.836-82.513,252.26c-7.048-3.105-14.097-6.273-21.081-9.507l99.068-446.902l953.945,74.623        l66.282,285.821c-30.069,19.788-60.915,38.153-92.601,55.095C2047.191,2609.819,2048.743,2604.194,2049.455,2598.891z" class="color262571 svgShape"/><path fill="#271260" d="M1514.479,2740.958l8.698-194.778c0,0,65.35-125.814,74.4-119.373       c9.048,6.441-41.705,124.875-41.705,124.875L1514.479,2740.958z" class="color271260 svgShape"/><path fill="#f9a08f" d="M1017.45,1324.912c0,0-269.161,455.641-253.983,478.803c15.178,23.163,50.534,127.304,92.956,144.924       c42.422,17.621,120.813-35.153,120.813-35.153l286.051-402.25L1017.45,1324.912z" class="colorF9A08F svgShape"/><linearGradient id="a" x1="-581.041" x2="1397.8" y1="3795.976" y2="1210.715" gradientTransform="rotate(33.013 1455.573 1459.276)" gradientUnits="userSpaceOnUse"><stop offset="0" stop-color="#fe573c" class="stopColorfe573c svgShape"/><stop offset="1" stop-color="#fabd23" class="stopColorfabd23 svgShape"/></linearGradient><path fill="url(#a)" d="M1347.349,969.383c0,0-94.518,26.057-99.423,32.979       c-116.389,164.278-294.763,326.418-318,356.839c-23.236,30.421,223.856,311.434,243.864,313.951       c20.008,2.518,192.349-194.238,219.228-210.064C1419.896,1447.262,1347.349,969.383,1347.349,969.383z"/><path fill="#271260" d="M1393.036,1463.107c-26.901,15.778-199.234,212.555-219.216,210.034       c-20.046-2.523-267.133-283.494-243.918-313.952c0.711-0.905,1.487-1.875,2.457-3.039       c40.933,67.834,145.109,177.636,365.36,91.114c42.938-16.878,75.4-40.416,99.455-68.481       C1400.214,1426.119,1399.761,1459.162,1393.036,1463.107z" opacity=".1" class="color271260 svgShape"/><path fill="#271260" d="M1999.742,550.698c-184.393,54.924-176.937-23.007-176.937-23.007       c-52.207-403.431-433.85-292.595-430.94-167.467c-201.756,25.22-109.421,206.796-109.421,206.796       c-93.456,167.974,197.357,284.292,197.357,284.292s94.504,205.767,402.717,175.438       C2190.739,996.41,2259.467,473.334,1999.742,550.698z" class="color271260 svgShape"/><linearGradient id="b" x1="-2131.797" x2="-200.932" y1="3317.297" y2="794.715" gradientTransform="scale(-1 1) rotate(7.377 -29.438 -7661.201)" gradientUnits="userSpaceOnUse"><stop offset="0" stop-color="#fe573c" class="stopColorfe573c svgShape"/><stop offset="1" stop-color="#fabd23" class="stopColorfabd23 svgShape"/></linearGradient><path fill="url(#b)" d="M1666.85,909.238l46.048,247.834       l157.164,497.185c0,0,357.658-50.42,314.386-122.866c-183.958-307.983-267.299-562.862-287.999-576.013       C1851.802,927.336,1666.85,909.238,1666.85,909.238z"/><linearGradient id="c" x1="-1308.003" x2="203.575" y1="3217.316" y2="1242.512" gradientTransform="scale(-1 1) rotate(7.377 -29.438 -7661.201)" gradientUnits="userSpaceOnUse"><stop offset="0" stop-color="#fe573c" class="stopColorfe573c svgShape"/><stop offset="1" stop-color="#fabd23" class="stopColorfabd23 svgShape"/></linearGradient><path fill="url(#c)" d="M1666.754,909.046       c-46.915-9.967-339.303,58.006-357.512,71.389c-12.324,9.058-37.145,99.106-60.171,215.73       c-8.435,42.723-96.228,121.578-103.479,168.757c-10.059,65.458,61.296,100.067,56.744,161.814       c-32.326,438.509-206.225,755.74-206.225,755.74s134.965,114.998,425.658,136.312       c290.693,21.314,715.337-52.258,712.968-70.563C2132.369,2329.919,1816.589,940.879,1666.754,909.046z"/><path fill="#262571" d="M1154.323,1382.068c0-17.417,92.14-177.139,92.14-177.139       c-7.76,13.115-128.514,148.326-112.995,189.185c14.479,38.12,45.75,101.673,61.303,138.694       c-17.579,142.099-37.457,261.656-30.941,263.517c6.797,1.943,32.281-124.637,50.63-274.642c1.62-4.019,2.062-7.465,2.062-7.465       S1154.323,1399.485,1154.323,1382.068z" class="color262571 svgShape"/><path fill="#271260" d="M1377.775 957.937c0 0 17.219 170.126 171.779 152.347 154.56-17.779 134.476-199.229 134.476-199.229S1530.902 896.89 1377.775 957.937zM1449.941 1986.316c-17.718 25.931-311.817 55.03-263.706 98.68 48.111 43.649 180.611 32.526 111.483 61.367-69.192 28.84-178.477-32.01-180.546 53.737-1.617 63.889 181.839 150.024 217.082 208.934-230.338-34.725-338.136-126.551-338.136-126.551s173.885-317.249 206.218-755.745c4.526-61.755-66.799-96.352-56.776-161.793.905-5.819 3.039-12.093 6.079-18.752 12.092 20.757 90.467 165.543 268.855 149.595 30.139-2.695-115.727 1.398-140.753 103.246-25.026 101.848-122.864 336.842-2.716 380.233C1397.174 2022.657 1467.66 1960.384 1449.941 1986.316z" opacity=".1" class="color271260 svgShape"/><path fill="#271260" d="M2134.748,2348.248c1.358,10.671-141.682,39.963-318.801,58.458       c-86.716-30.781-190.892-74.042-205.378-108.509c-25.284-60.333,13.709-355.789,10.152-380.039       c-3.492-24.25-249.609,3.881-274.699-22.504c-25.026-26.319,23.732-147.76,17.266-172.074       c-6.467-24.38,220.25-115.817,226.006-141.811c5.82-25.932-31.945-87.493-29.746-112.907       c2.263-25.414,76.37-15.326,94.735-34.337c13.45-13.967,69.027-334.254,80.796-500.962       C1894.221,1138.552,2132.55,2331.305,2134.748,2348.248z" opacity=".1" class="color271260 svgShape"/><path fill="#ffa896" d="M1684.053,911.076c0,0-3.688,166.264-157.383,157.013         c-153.952-9.219-148.908-110.138-148.908-110.138l55.791-19.626c7.672-63.667,26.242-200.579,26.242-200.579         s133.406-79.067,134.792-69.491c5.149,31.394,21.927,190.696,29.888,236.284L1684.053,911.076z" class="colorFFA896 svgShape"/><path fill="#f29788" d="M1449.941,811.147c5.368-40.804,9.83-73.395,9.83-73.395s133.405-79.086,134.827-69.515         c3.557,21.727,12.675,104.758,20.628,168.905c-20.886,19.723-50.18,41.839-77.857,43.973         C1505.165,883.572,1470.892,842.057,1449.941,811.147z" class="colorF29788 svgShape"/><path fill="#ffa896" d="M1399.099,536.842c0,0-23.688-26.102-61.45-13.414                c-41.242,13.856-0.564,119.143,25.035,121.674c24.718,2.444,30.77-10.769,32.15-30.044                C1397.198,582.034,1399.099,536.842,1399.099,536.842z" class="colorFFA896 svgShape"/><path fill="#271260" d="M1356.609,544.363c11.202,9.204,31.252,39.859,16.604,62.03c0,0,0.647-15.245-7.127-24.815                l-20.041-10.062l20.41-0.72L1356.609,544.363z" class="color271260 svgShape"/><path fill="#ffa896" d="M1657.385,536.842c0,0,23.688-26.102,61.45-13.414                c41.241,13.856,0.565,119.143-25.035,121.674c-24.718,2.444-30.77-10.769-32.15-30.044                C1659.287,582.034,1657.385,536.842,1657.385,536.842z" class="colorFFA896 svgShape"/><path fill="#271260" d="M1699.876,544.363c-11.203,9.204-31.252,39.859-16.605,62.03c0,0-0.647-15.245,7.127-24.815                l20.041-10.062l-20.41-0.72L1699.876,544.363z" class="color271260 svgShape"/><path fill="#ffa896" d="M1682.373,504.999c0,0-6.603,162.235-6.196,177.657c2.076,78.64-79.053,145.81-128.519,153.785               c-55.645,8.972-155.674-63.344-162.112-156.684c-1.948-29.329-6.536-119.51-6.123-174.91               c38.849,6.56,110.346,1.653,135.151-53.022C1556.359,522.621,1682.373,504.999,1682.373,504.999z" class="colorFFA896 svgShape"/><path fill="#f4f4f4" d="M1577.355,732.288               c-49.551,2.745-52.705-15.983-73.139-18.089c-11.168-1.16-18.081,7.742-15.363,17.101c0,0,13.088,44.002,70.932,35.631               C1596.247,761.65,1588.286,731.684,1577.355,732.288z" class="colorF4F4F4 svgShape"/><path fill="#271260" d="M1533.709 614.374c2.512 2.519 22.405 47.567 13.619 57.163-8.787 9.596-34.804 3.948-31.413.784 3.391-3.164 25.901-6.631 26.014-9.909C1542.044 659.134 1527.927 608.577 1533.709 614.374zM1508.075 530.049c6.633 4.664-.929 5.545-27.839-.916-26.91-6.461-53.072 13.066-58.159.423C1416.99 516.913 1453.827 491.897 1508.075 530.049zM1609.159 606.398c-11.212 1.056-21.206-8.694-22.507-21.856-1.218-13.082 6.825-24.538 17.957-25.595.65-.081 1.219-.081 1.788-.081-1.382 2.763-1.951 6.013-1.626 9.426.813 9.1 7.8 15.844 15.6 15.112 2.519-.244 4.794-1.219 6.744-2.925v.244C1628.334 593.805 1620.291 605.342 1609.159 606.398zM1472.57 609.394c-11.213 1.056-21.206-8.694-22.507-21.857-1.218-13.081 6.825-24.537 17.957-25.594.65-.081 1.219-.081 1.787-.081-1.381 2.763-1.95 6.013-1.625 9.426.812 9.1 7.8 15.844 15.6 15.112 2.519-.244 4.794-1.219 6.744-2.925v.244C1491.744 596.799 1483.701 608.337 1472.57 609.394zM1567.805 530.049c-6.632 4.664.101 6.273 27.011-.189 26.91-6.461 53.9 12.338 58.988-.305C1658.891 516.913 1622.054 491.897 1567.805 530.049z" class="color271260 svgShape"/><path fill="#f4f4f4" d="M1458.511 521.833c-40.933 0-74.124 33.192-74.124 74.125 0 40.879 33.191 74.072 74.124 74.072 40.88 0 74.072-33.192 74.072-74.072C1532.583 555.026 1499.392 521.833 1458.511 521.833zM1458.511 657.251c-33.881 0-61.346-27.465-61.346-61.293 0-33.881 27.465-61.346 61.346-61.346 33.828 0 61.294 27.465 61.294 61.346C1519.805 629.786 1492.34 657.251 1458.511 657.251zM1606.708 521.833c-40.933 0-74.125 33.192-74.125 74.125 0 40.879 33.192 74.072 74.125 74.072 40.88 0 74.072-33.192 74.072-74.072C1680.779 555.026 1647.588 521.833 1606.708 521.833zM1606.708 657.251c-33.881 0-61.346-27.465-61.346-61.293 0-33.881 27.465-61.346 61.346-61.346 33.828 0 61.293 27.465 61.293 61.346C1668.001 629.786 1640.536 657.251 1606.708 657.251z" class="colorF4F4F4 svgShape"/><path fill="#f29788" d="M1684.03,911.055c0,0-3.687,166.256-157.332,157.008c-153.968-9.183-148.924-110.126-148.924-110.126         l6.402-2.263c28.452,39.769,89.044,106.051,169.94,92.277c93.248-15.842,116.85-105.469,122.348-137.737L1684.03,911.055z" class="colorF29788 svgShape"/><path fill="#271260" d="M1756.626,1320.445l113.426,333.741c0,0,357.739-50.331,314.403-122.724   c-5.687-9.481-11.395-19.106-17.083-28.587c-39.67,66.01-146.257,46.418-229.745,14.049   C1878.402,1494.077,1803.979,1392.75,1756.626,1320.445z" opacity=".1" class="color271260 svgShape"/><path fill="#262571" d="M1728.283,1210.885c0,0,119.722,435.576,132.224,444.609c12.502,9.032,61.832-8.003,61.832-8.003   l-56.525-16.034C1865.814,1631.456,1756.626,1239.858,1728.283,1210.885z" class="color262571 svgShape"/><g><path fill="#f29788" d="M1121.178,828.13c0,0,66.302-120.227,76.51-122.831c0,0,22.986,3.75,24.173,35.719     c0.641,17.268-22.218,87.112-22.218,87.112H1121.178z" class="colorF29788 svgShape"/><path fill="#ffa896" d="M1171.526,991.821c0,0-150.264,834.695-155.872,866.296c-9.254,52.149-85.311,97.063-131.87,97.063     s-162.967-36.018-162.957-120.512c0.005-42.489,337.946-910.331,337.946-910.331L1171.526,991.821z" class="colorFFA896 svgShape"/><path fill="#f9a08f" d="M1171.557,991.822c0,0-10.671,59.427-26.449,147.179c-52.961-37.053-64.536-150.347-67.058-203.178     L1171.557,991.822z" class="colorF9A08F svgShape"/><path fill="#f29788" d="M1116.787,1306.67c0,0-62.678,435.583-77.075,426.601     C1025.315,1724.29,1103.501,1335.726,1116.787,1306.67z" class="colorF29788 svgShape"/><path fill="#ffa896" d="M1140.4,785.05c46.93-3.843,159.7,28.521,159.7,28.521s10.363,25.476,1.564,41.525     c-4.451,8.12-11.326,13.941-21.937,13.06c7.411,3.098,16.869,6.718,16.869,6.718s0.817,33.513-9.256,41.363     c-9.68,7.543-28.218,9.743-42.338,7.583c14.651,5.719,27.635,9.07,27.635,9.07s4.846,31.554-15.159,44.538     c-8.708,5.652-13.681,8.433-31.936,4.747c19.228,5.513,25.835,8.241,25.835,8.241s-11.895,34.308-19.391,38.944     c-29.129,18.016-127.448,1.928-127.448,1.928c-27.315-24.89-57.338-93.952-41.257-126.114     C1095.306,841.128,1121.893,786.595,1140.4,785.05z" class="colorFFA896 svgShape"/><path fill="#f29788" d="M1186.25 851.535c-.046-.734 5.307-1.974 14.069-2.115 8.752-.224 20.876.649 33.975 3.138 26.263 4.946 46.093 14.011 45.433 15.597-.599 1.595-20.94-4.688-46.584-9.51C1207.536 853.514 1186.365 853.294 1186.25 851.535zM1157.534 911.916c.035-1.722 20.094-2.171 44.367 1.397 24.271 3.45 43.458 8.831 43.102 10.506-.349 1.674-19.926-.956-43.972-4.373C1177.003 915.913 1157.486 913.618 1157.534 911.916zM1157.534 971.238c.281-1.688 17.175-.284 37.735 3.134 20.56 3.418 37 7.557 36.72 9.245-.281 1.688-17.176.284-37.735-3.134C1173.693 977.064 1157.253 972.925 1157.534 971.238z" class="colorF29788 svgShape"/></g><path fill="#e5e3cc" d="M661.602,1866.671c-2.444,0.225-4.975-2.677-7.466-8.331c-0.623-1.412-1.243-2.996-1.858-4.743   c-0.528-1.75-1.033-3.663-1.528-5.731c-0.991-4.137-1.983-8.9-2.46-14.196c-0.289-2.649-0.551-5.436-0.784-8.348   c-0.093-2.9-0.147-5.925-0.169-9.066c-0.001-1.572-0.002-3.171-0.003-4.794c0.032-1.622,0.167-3.259,0.261-4.928   c0.219-3.334,0.457-6.774,0.778-10.297c1.625-14.026,4.867-29.313,10.074-44.763c5.133-15.485,12.081-29.445,19.207-41.535   c1.84-2.996,3.66-5.896,5.453-8.689c1.86-2.755,3.797-5.345,5.637-7.858c3.609-5.07,7.51-9.411,11.027-13.351   c0.893-0.973,1.765-1.923,2.614-2.849c0.91-0.878,1.796-1.733,2.657-2.565c1.738-1.647,3.406-3.167,4.998-4.553   c3.131-2.814,6.169-4.933,8.804-6.513c5.262-3.169,9.003-4.099,10.883-2.519c1.879,1.58,1.734,5.506-0.032,11.117   c-0.889,2.803-2.211,6.01-3.667,9.741c-0.755,1.846-1.597,3.782-2.521,5.8c-0.469,1.002-0.953,2.031-1.448,3.088   c-0.464,1.073-0.94,2.173-1.428,3.3c-1.951,4.496-4.355,9.201-6.57,14.43c-1.172,2.565-2.384,5.218-3.632,7.949   c-1.155,2.772-2.369,5.601-3.643,8.48c-4.856,11.618-10.15,24.308-14.667,37.978c-4.588,13.639-8.336,26.799-11.463,38.938   c-0.711,3.052-1.405,6.027-2.079,8.92c-0.341,1.449-0.736,2.874-1.042,4.287c-0.291,1.417-0.578,2.811-0.86,4.182   c-0.581,2.746-1.182,5.403-1.792,7.968c-0.469,2.57-0.958,5.047-1.465,7.42c-1.112,4.746-1.882,9.082-2.786,12.933   c-0.454,1.926-0.931,3.73-1.414,5.401c-0.397,1.667-0.818,3.203-1.262,4.596C666.181,1863.141,664.047,1866.445,661.602,1866.671z" class="colorE5E3CC svgShape"/><g><path fill="#ffa896" d="M1710.724,1742.048c-32.849,23.322-92.472-0.254-95.279-67.114c-2.806-66.859,37.32-64.744,12.175-130.946   c-25.145-66.203-59.036-137.704-8.513-140.096c50.524-2.39,94.509,62.936,103.496,107.063   C1731.59,1555.081,1710.724,1742.048,1710.724,1742.048z" class="colorFFA896 svgShape"/><path fill="#f29788" d="M1722.603,1510.954c-4-19.639-14.944-43.467-30.298-63.666c-0.604,25.854-6.994,51.329-11.191,76.739   c-4.28,25.912-8.917,51.764-13.172,77.681c-2.1,12.795-3.701,25.705-6.018,38.457c-2.074,11.41-5.4,22.575-9.838,33.286   c-4.533,10.947-15.508,38.428-31.344,30.002c15.754,44.631,62.341,58.22,89.982,38.595   C1710.724,1742.048,1731.59,1555.081,1722.603,1510.954z" class="colorF29788 svgShape"/><path fill="#253882" d="M1785.662,2303.248l485.793,35.046c60.586,4.337,112.334-44.146,115.256-108.143l12.144-267.358     l11.518-255.429l33.75-744.435c2.736-59.686-42.804-107.393-101.285-106.723l-469.61,5.488     c-55.098,0.6-102.403,47.572-106.09,105.02l-77.195,1217.729C1686.021,2245.917,1728.753,2299.157,1785.662,2303.248z" class="color253882 svgShape"/><path fill="#235da3" d="M2306.312,848.503l-469.745,5.157c-55.109,0.606-102.497,47.878-106.168,105.751l-77.835,1226.73     c-3.928,61.893,38.762,115.574,95.701,119.747l485.907,35.616c60.605,4.442,112.425-44.373,115.359-108.865l58.077-1276.548     C2410.342,895.95,2364.832,847.86,2306.312,848.503z" class="color235DA3 svgShape"/><path fill="#f4f4f2" d="M2301.875,888.654l-465.299,4.06c-36.298,0.316-67.539,31.431-69.922,69.568L1690.23,2185.39     c-2.545,40.735,25.616,75.96,63.052,78.614l480.398,34.033c39.729,2.815,73.663-29.213,75.629-71.463l58.965-1267.134     C2370.109,919.977,2340.313,888.319,2301.875,888.654z" class="colorF4F4F2 svgShape"/><path fill="#253882" d="M2151.037,921.417l-164.456,1.322c-2.876,0.024-5.341,2.464-5.508,5.453     c-0.168,2.988,2.024,5.393,4.902,5.371l164.483-1.253c2.91-0.024,5.401-2.479,5.561-5.489     C2156.178,923.815,2153.948,921.395,2151.037,921.417z" class="color253882 svgShape"/><path fill="#d6e5ed" d="M2264.538,1680.042l-474.408-17.958c-14.125-0.535-24.794-13.275-23.857-28.444l36.331-587.445     c0.907-14.66,12.894-26.563,26.798-26.597l466.715-1.169c14.755-0.037,26.16,12.194,25.448,27.33l-28.502,606.908     C2292.325,1668.349,2279.543,1680.611,2264.538,1680.042z" class="colorD6E5ED svgShape"/><path fill="#d6e5ed" d="M2184.488,1542.98l-81.308-1.079c-19.195-0.255-34.949-15.259-36.14-34.418l-12.203-196.386        c-0.328-5.277,3.902-9.719,9.19-9.649l165.982,2.203c5.287,0.071,9.398,4.623,8.93,9.89l-17.411,195.993        C2219.829,1528.654,2203.682,1543.235,2184.488,1542.98z" class="colorD6E5ED svgShape"/><path fill="#d6e5ed" d="M2203.669,1188.691c-1.335,0.245-3.815-1.453-5.955-4.191c-2.362-3.019-3.405-6.236-2.374-7.155        l-25.448,18.25c-6.394,4.585-11.158,11.093-13.598,18.574l-73.077,224.081l13.472,4.393l72.974-223.762        c1.555-4.77,4.593-8.92,8.67-11.845l25.401-18.22L2203.669,1188.691z" class="colorD6E5ED svgShape"/><path fill="#c6c9e0" d="M2203.726,1188.802l-25.383,18.245c-4.084,2.9-7.132,7.055-8.692,11.837l-72.97,223.755l-13.453-4.387        l52.442-160.807c3.44,2.321,9.746,0.246,10.615,0.071c1.917-0.362,20.392-64.327,20.031-66.032s-3.805-3.146-3.218-4.083        c0.556-0.947,3.746,2.139,3.43,0.837c-0.326-1.27-2.114-3.899-1.628-4.199c0.528-0.321,2.455,2.635,3.454,2.819        c0.998,0.184-1.682-2.523-2.384-4.481c-0.627-1.862,4.151,2.412,4.62,2.812c-0.246-0.327-1.927-2.744-2.065-4.483        c-0.182-1.928,3.903,3.389,4.368,3.153c0.338-0.172,16.307-11.505,25.774-18.258c1.891,2.098,3.861,3.304,4.993,3.074        L2203.726,1188.802z" class="colorC6C9E0 svgShape"/><path fill="#271260" d="M2204.14,1188.531c-0.14,0.111-0.313,0.159-0.471,0.16c-1.335,0.245-3.815-1.453-5.955-4.191         c-2.362-3.019-3.405-6.236-2.374-7.155l0.063-0.032c0,0,0.016-0.047,0.063-0.032c1.143-0.779,3.954,1.028,6.363,4.062         C2204.223,1184.427,2205.266,1187.643,2204.14,1188.531z" class="color271260 svgShape"/><path fill="#1c8ef4" d="M2187.071,1281.508l-79.535-1.055c-18.776-0.249-34.402,1.304-35.845,3.564l-14.793,23.159       c-0.398,0.622,3.675,1.212,8.847,1.28l162.361,2.155c5.172,0.069,9.259-0.412,8.878-1.045l-14.174-23.543       C2221.427,1283.725,2205.847,1281.758,2187.071,1281.508z" class="color1C8EF4 svgShape"/><path fill="#1c8ef4" d="M2227.313,1349.915l-13.999,157.504c-1.316,15.203-14.332,26.938-29.583,26.736       l-79.569-1.056c-15.251-0.202-27.95-12.279-28.896-27.512l-10.08-162.548       C2093.996,1357.331,2164.97,1342.965,2227.313,1349.915z" opacity=".8" class="color1C8EF4 svgShape"/><path fill="#3d72c1" d="M2217.216,1463.336l-3.905,44.079c-1.309,15.207-14.341,26.938-29.596,26.736       l-79.562-1.055c-15.255-0.203-27.939-12.275-28.876-27.512l-2.982-48.161c4.793,2.713,13.561-0.994,35.316,14.754       c30.258,21.897,33.79-16.754,53.985-2.235C2178.437,1482.07,2201.08,1476.435,2217.216,1463.336z" opacity=".8" class="color3D72C1 svgShape"/><path fill="#3d72c1" d="M2115.055 1460.824c-4.948 7.522 15.43 12.277 16.499 7.512C2132.624 1463.571 2120.958 1451.848 2115.055 1460.824zM2169.834 1464.501c6.169 7.237 16.041 4.17 15.339.204C2184.471 1460.738 2164.138 1457.819 2169.834 1464.501zM2138.27 1458.617c6.639 4.45 17.827 2.248 15.919-5.574C2152.281 1445.221 2127.551 1451.432 2138.27 1458.617z" opacity=".8" class="color3D72C1 svgShape"/><path fill="#c6c9e0" d="M2238.938,1313.527l-2.048,22.943c-40.772-2.922-142.977-8.403-181.112-10.418       l-0.941-14.969c-0.333-5.269,3.917-9.706,9.182-9.636l165.996,2.203C2235.279,1303.72,2239.411,1308.269,2238.938,1313.527z" opacity=".5" class="colorC6C9E0 svgShape"/><path fill="#d6e5ed" d="M2199.72,1339.465c3.394,0.045,19.843,1.899,19.843,1.899       s-13.928,177.754-16.598,179.981c-2.671,2.229-5.713,4.074-5.713,4.074L2199.72,1339.465z" opacity=".5" class="colorD6E5ED svgShape"/><path fill="#aa845e" d="M2106.753,1523.287c4.851,11.171-45.679,20.22-113.266,19.281          c-67.587-0.938-117.848-11.387-112.689-22.419c4.739-10.134,55.281-17.112,113.226-16.307          C2051.971,1504.647,2102.299,1513.025,2106.753,1523.287z" class="colorAA845E svgShape"/><path fill="#c8b395" d="M2105.56,1520.535c4.036,9.295-45.975,16.613-111.985,15.695          c-66.009-0.916-115.797-9.619-111.505-18.799c3.994-8.543,54.009-14.394,111.955-13.589          C2051.971,1504.647,2101.803,1511.884,2105.56,1520.535z" class="colorC8B395 svgShape"/><path fill="#f4f4f2" d="M2058.989,1518.624c-22.365,6.967-108.167,5.828-130.34-1.73            c-94.501-32.183-86.25-154.009-86.25-154.009l306.915,4.073C2149.314,1366.959,2154.312,1488.96,2058.989,1518.624z" class="colorF4F4F2 svgShape"/><path fill="#aa845e" d="M2149.412,1367.081c-0.044,3.182-4.452,6.159-12.385,8.811            c-23.523,7.858-78.039,12.831-141.447,11.939c-63.407-0.892-117.758-7.395-141.055-15.912            c-7.857-2.873-12.182-5.972-12.138-9.155c0.174-12.657,69.043-21.944,153.823-20.752            C2080.991,1343.205,2149.584,1354.424,2149.412,1367.081z" class="colorAA845E svgShape"/><path fill="#d6cbb1" d="M2138.209,1378.968c-1.165,43.724-21.373,92.479-51.257,114.943        c-4.473,3.184-9.153,5.801-13.975,7.647c4.327-3.332,8.461-6.84,12.287-10.827        C2112.284,1462.155,2124.295,1418.687,2138.209,1378.968L2138.209,1378.968z" class="colorD6CBB1 svgShape"/><path fill="#fabd23" d="M2148.428,1388.224c-0.065,0.855-0.168,1.756-0.252,2.68c-50.94,9.156-102.393,13.401-153.78,12.718        c-50.755-0.674-101.446-6.135-151.495-16.399c-0.06-0.927-0.139-1.807-0.199-2.686        C1943.592,1405.261,2047.037,1406.518,2148.428,1388.224z" class="colorFABD23 svgShape"/><linearGradient id="d" x1="1843.273" x2="2146.892" y1="1406.215" y2="1406.215" gradientTransform="rotate(.81 1578.96 1421.617)" gradientUnits="userSpaceOnUse"><stop offset="0" stop-color="#fe573c" class="stopColorfe573c svgShape"/><stop offset="1" stop-color="#fabd23" class="stopColorfabd23 svgShape"/></linearGradient><path fill="url(#d)" d="M2147.245,1398.387        c-0.7,5.103-1.66,10.643-2.93,16.432c-49.761,8.87-100.036,12.969-150.231,12.303c-49.562-0.658-99.044-5.965-147.922-15.89        c-1.134-5.822-1.946-11.384-2.511-16.504C1943.815,1415.697,2046.592,1416.946,2147.245,1398.387z"/><polygon fill="#aa845e" points="1963.758 1349.011 2032.607 1181.303 2042.085 1185.593 1972.395 1349.126" class="colorAA845E svgShape"/><polygon fill="#aa845e" points="1973.293 1348.405 2056.122 1187.143 2065.203 1192.222 1981.89 1349.251" class="colorAA845E svgShape"/><g opacity=".2"><polygon fill="#271260" points="2042.081 1185.593 1972.385 1349.122 1963.758 1349.007 1980.205 1308.928 1986.667 1308.366 2038.976 1184.188" class="color271260 svgShape"/><polygon fill="#271260" points="2065.196 1192.216 1981.891 1349.248 1973.297 1348.394 1994.075 1307.955 2000.017 1306.438 2062.738 1190.841" class="color271260 svgShape"/></g><path fill="#fe573c" d="M2139.759,1368.459c-24.146,8.797-80.084,14.42-145.138,13.514        c-65.053-0.906-120.807-8.083-144.698-17.549c6.081-13.862,68.856-23.973,145.259-22.91        C2071.583,1342.578,2134.063,1354.432,2139.759,1368.459z" class="colorFE573C svgShape"/><path fill="#b99c7a" d="M1936.287,1296.857c0.716-1.662-6.362-23.594-9.664-23.001c-3.301,0.592-30.905,11.032-33.074,14.61         c-2.168,3.577,0.632,16.563,0.632,16.563S1935.79,1298.01,1936.287,1296.857z" class="colorB99C7A svgShape"/><path fill="#c8b395" d="M1948.306,1334.672c-4.781,7.945-33.906,42.803-55.104,12.207          c-0.648-0.969-3.209-13.503-7.486-25.558c-2.865-7.988-6.468-15.794-10.879-19.914          c-11.01-10.169,35.929-15.831,51.726-19.777c10.563-2.704,18.869,18.362,21.765,34.998          C1949.771,1324.916,1949.907,1332.069,1948.306,1334.672z" class="colorC8B395 svgShape"/><path fill="#b99c7a" d="M1948.313,1334.665c-4.799,7.94-33.912,42.82-55.112,12.222c-0.638-0.97-3.214-13.505-7.495-25.553          c-2.863-8.013-6.465-15.81-10.878-19.941c-3.884-3.587-0.535-6.625,6.117-9.223c6.723,9.167,6.838,26.081,14.008,35.622          c7.947,10.598,8.377-8.967,10.632,0.141c2.283,9.08-0.829,28.355,6.723,21.922c7.552-6.461,1.437-35.813,5.284-27.334          c3.875,8.48,7.927,14.274,8.643,9.334c0.688-4.912-9.214-26.056-3.377-22.613c5.837,3.414,10.382,21.122,16.27,20.719          c3.538-0.236,7.371-3.465,9.999-7.588C1949.73,1328.095,1949.528,1332.674,1948.313,1334.665z" opacity=".5" class="colorB99C7A svgShape"/><path fill="#b99c7a" d="M1921.271,1301.132c0,0,1.972-4.741,5.56-4.386          C1930.419,1297.1,1926.113,1301.751,1921.271,1301.132z" class="colorB99C7A svgShape"/><path fill="#b99c7a" d="M1908.348 1315.967c0 0 1.972-4.741 5.56-4.386C1917.496 1311.936 1913.19 1316.587 1908.348 1315.967zM1931.031 1296.649c0 0 1.139-2.738 3.211-2.533C1936.314 1294.321 1933.827 1297.008 1931.031 1296.649z" opacity=".25" class="colorB99C7A svgShape"/><path fill="#b99c7a" d="M1934.571,1298.304c0,0-0.921,2.211-2.594,2.045          C1930.303,1300.183,1932.314,1298.014,1934.571,1298.304z" class="colorB99C7A svgShape"/><path fill="#b99c7a" d="M1907.733,1296.513c0,0-1.282,3.078-3.611,2.849          C1901.792,1299.132,1904.589,1296.112,1907.733,1296.513z" opacity=".25" class="colorB99C7A svgShape"/><path fill="#b99c7a" d="M1902.062 1298.126c0 0-1.139 2.739-3.213 2.532C1896.778 1300.453 1899.265 1297.768 1902.062 1298.126zM1898.522 1296.473c0 0 .919-2.212 2.594-2.046C1902.788 1294.592 1900.781 1296.762 1898.522 1296.473zM1888.552 1297.672c-.308 4.739 5.843 27.246 7.165 27.529 1.322.283-.223-7.161-.412-8.913C1895.116 1314.534 1888.752 1294.599 1888.552 1297.672z" class="colorB99C7A svgShape"/><path fill="#fabd23" d="M2125.083,1346.921c-6.757-1.132-8.147,2.338-17.894,3.443c-0.004-2.904-0.32-6.072-0.021-8.691        c2.314-21.686-32.496-9.249-26.728-22.762c16.324-5.171,13.232-18.51-1.33-6.311c1.796-4.071,6.709-7.283,6.208-12.35        c-0.566-6.194-8.531-12.665-13.853-8.126c-3.35,5.136,5.784,9.496,4.862,14.957h0c-0.197,1.822-0.934,3.406-1.954,4.863        c-0.737,1.122-0.956-1.238-1.425-1.656c-0.41-0.764-0.89-1.608-1.65-2.03c-0.063-0.195-0.264-0.231-0.38-0.366        c-3.217-2.483-9.373,5.724-5.284,7.901c5.22,2.849,3.086,10.026,1.311,14.567c-4.411,8.378-14.64,6.718-22.174,8.625        c-5.352,0.793-8.705,4.441-9.754,9.194c-0.16,0.026-0.326,0.041-0.485,0.067c-22.721,3.791-54.614-7.909-78.826-11.289        c-24.209-3.38-27.423,9.658-43.087,14.764c-15.665,5.106-30.034-10.306-38.875-7.994c-8.839,2.31-9.953-0.595-15.563-2.195        c-5.609-1.6-3.934,2.531-2.861,8.478c1.074,5.947,7.947,1.356,14.559,12.219c5.788,9.513,49.844,8.3,64.98,10.032        c15.138,1.732,38.526,1.906,61.335,2.223s46.073-0.879,61.237-1.126c15.164-0.244,30.738,1.189,48.594-5.711        c17.855-6.9,12.999-0.275,26.515-6.627C2146.057,1354.666,2133.006,1348.248,2125.083,1346.921z M2046.879,1344.258        c-0.002,0-0.003,0-0.006,0c0.002-0.001,0.004-0.002,0.006-0.004C2046.878,1344.256,2046.879,1344.257,2046.879,1344.258z         M2062.346,1336.322c0.002-0.005,0.005-0.009,0.007-0.014c0.002,0.005,0.008,0.009,0.01,0.014        C2062.357,1336.321,2062.352,1336.323,2062.346,1336.322z" class="colorFABD23 svgShape"/><path fill="#fdd248" d="M1992.115,1371.137c-14.169-0.196-25.333-5.392-37.004-10.823c-4.645-2.162-9.45-4.397-14.665-6.445          c-17.059-7.048-27.873-5.112-41.564-2.664c-3.368,0.603-6.853,1.226-10.643,1.762c-2.296,0.329-4.4-1.372-4.704-3.788          c-0.305-2.417,1.308-4.637,3.601-4.961c3.645-0.515,7.054-1.125,10.353-1.716c14.382-2.571,26.802-4.795,45.957,3.12          c5.384,2.112,10.303,4.402,15.061,6.615c14.956,6.962,26.778,12.459,44.963,9.07c11.695-2.572,13.668-5.664,15.577-8.653          c2.682-4.201,5.502-7.506,15.185-8.639c2.608-0.34,5.33-0.651,8.037-0.96c9.448-1.081,27.032-3.092,26.97-7.342          c-0.086-5.322-1.89-7.414-11.857-8.535c-2.299-0.258-3.963-2.435-3.714-4.858c0.248-2.423,2.322-4.176,4.615-3.919          c6.673,0.749,19.092,2.147,19.335,17.157c0.178,12.314-16.645,14.237-34.456,16.273c-2.665,0.306-5.346,0.612-7.965,0.953          c-6.635,0.778-7.546,2.203-9.197,4.789c-3.171,4.969-6.933,9.331-20.893,12.391c-0.039,0.008-0.08,0.016-0.12,0.024          C2000.401,1370.847,1996.135,1371.193,1992.115,1371.137z" class="colorFDD248 svgShape"/><path fill="#e2a824" d="M1986.119,1358.98c-14.176-0.197-25.189-4.62-37.54-9.579c-4.388-1.761-8.926-3.583-13.847-5.306          c-17.107-6.339-27.524-5.437-40.711-4.297c-3.236,0.28-6.582,0.57-10.216,0.77c-2.312,0.135-4.28-1.742-4.396-4.177          c-0.118-2.435,1.659-4.512,3.971-4.639c3.509-0.193,6.792-0.477,9.967-0.751c13.62-1.18,25.384-2.197,44.106,4.741          c5.024,1.758,9.647,3.614,14.12,5.411c15.107,6.064,27.043,10.859,45.277,8.302c11.551-1.99,13.537-4.463,15.291-6.642          c2.763-3.436,5.445-5.938,14.836-6.857c1.911-0.211,3.908-0.42,5.906-0.629c9.338-0.975,26.643-2.781,28.79-5.996          c0.03-2.302-0.185-4.278-11.218-4.964c-2.309-0.145-4.068-2.234-3.929-4.666c0.139-2.434,2.102-4.287,4.435-4.148          c6.74,0.42,19.285,1.201,19.089,14.07c-0.181,10.713-16.143,12.379-36.351,14.487c-1.981,0.207-3.959,0.414-5.907,0.63          c-6.756,0.662-7.751,1.899-9.26,3.774c-3.144,3.91-6.851,7.336-20.403,9.665c-0.039,0.006-0.078,0.013-0.119,0.017          C1993.775,1358.792,1989.838,1359.031,1986.119,1358.98z" class="colorE2A824 svgShape"/><path fill="#e2a824" d="M1893.004,1359.245c-0.878-0.013-1.759-0.313-2.503-0.924c-1.807-1.485-2.158-4.206-0.768-6.129          c0.665-0.921,16.83-22.395,63.572-9.336c14.574,4.074,25.557-0.842,37.184-6.046c9.401-4.209,19.121-8.558,30.474-7.495          c16.63,1.56,27.584-2.126,28.799-5.271c0.422-1.088-0.898-3.685-4.793-7.027c-1.792-1.538-2.06-4.318-0.598-6.209          c1.463-1.891,4.102-2.177,5.894-0.638c8.632,7.404,8.71,13.439,7.256,17.198c-3.924,10.141-22.556,12.127-37.313,10.74          c-9.259-0.859-17.611,2.87-26.453,6.825c-11.838,5.3-25.259,11.307-42.61,6.457c-40.838-11.415-54.644,6.005-54.779,6.184          C1895.522,1358.685,1894.265,1359.263,1893.004,1359.245z" class="colorE2A824 svgShape"/><path fill="#fdd248" d="M1995.014,1349.375c-10.278-0.142-18.416-3.568-26.929-7.151c-4.621-1.946-9.398-3.958-14.824-5.584          c-14.364-4.308-22.321-0.625-33.334,4.47c-1.798,0.832-3.647,1.687-5.585,2.537c-2.138,0.938-4.589-0.131-5.474-2.382          c-0.885-2.25,0.13-4.834,2.269-5.77c1.883-0.824,3.681-1.656,5.43-2.466c11.661-5.398,21.731-10.057,38.999-4.878          c5.839,1.75,10.822,3.848,15.639,5.876c10.513,4.428,18.816,7.921,31.213,5.989c8.536-1.329,10.21-3.603,11.828-5.801          c2.58-3.505,5.212-6.185,13.472-6.181c3.667,0.009,7.344,0.224,10.907,0.438c5.34,0.319,16.451,0.984,16.907-1.256          c0.775-3.818,0.311-5.764-7.402-8.383c-2.202-0.747-3.408-3.234-2.697-5.554c0.713-2.321,3.077-3.592,5.276-2.847          c4.704,1.596,15.718,5.335,13.016,18.622c-1.962,9.647-13.439,8.958-25.587,8.231c-3.446-0.206-7.009-0.42-10.436-0.423          c-4.805-0.002-5.4,0.806-6.837,2.758c-2.825,3.837-6.267,7.422-17.231,9.13          C2000.581,1349.223,1997.723,1349.413,1995.014,1349.375z" class="colorFDD248 svgShape"/><g><path fill="#f4f4f2" d="M1992.76,1360.586c-6.348-0.984-11.141-4.721-14.488-9.307c-4.862-6.641-6.71-15.054-5.92-19.416          c4.401-24.218,57.519-24.52,66.58-14.746c0.544,0.588,0.934,1.21,1.139,1.871          C2043.405,1329.611,2008.636,1363.04,1992.76,1360.586z" class="colorF4F4F2 svgShape"/><linearGradient id="e" x1="1978.398" x2="2014.003" y1="1327.467" y2="1327.467" gradientTransform="rotate(.81 1578.96 1421.617)" gradientUnits="userSpaceOnUse"><stop offset="0" stop-color="#fdd248" class="stopColorfdd248 svgShape"/><stop offset="1" stop-color="#fabd23" class="stopColorfabd23 svgShape"/></linearGradient><path fill="url(#e)" d="M2006.636,1340.43          c-7.208,4.973-16.453,6.648-21.984,4.553c-5.65-2.141-7.017-8.058-2.065-14.278c6.293-7.904,19.724-12.991,28.015-9.297          C2018.627,1324.982,2015.697,1334.18,2006.636,1340.43z"/><path fill="#e5e3cc" d="M1992.76,1360.586c-6.348-0.984-11.141-4.721-14.488-9.307c7.086,2.808,19.285,5.914,30.847,0.511         c14.868-6.947,24.261-28.933,29.812-34.674c0.544,0.588,0.934,1.21,1.139,1.871         C2043.405,1329.611,2008.636,1363.04,1992.76,1360.586z" class="colorE5E3CC svgShape"/><path fill="#f4f4f2" d="M1988.599,1329.171c3.647-1.427,9.752-5.116,14.275-0.863         c4.523,4.25,12.974-4.021,4.153-5.708C1998.207,1320.914,1988.599,1329.171,1988.599,1329.171z" opacity=".25" class="colorF4F4F2 svgShape"/></g><g><path fill="#57aa57" d="M1982.25,1337.053l0.909,3.055c0,0,1.342-1.609,3.234-1.199c1.891,0.411,4.318-0.119,4.318-0.119         l-1.917-3.095c0,0-3.015,1.36-3.899,0.989C1984.013,1336.315,1982.25,1337.053,1982.25,1337.053z" class="color57AA57 svgShape"/><path fill="#6dc671" d="M1968.009 1345.972l4.45-1.695c0 0-2.395-1.859-1.848-4.764.547-2.902-.297-6.516-.297-6.516l-4.481 3.224c0 0 2.079 4.415 1.561 5.791C1966.877 1343.387 1968.009 1345.972 1968.009 1345.972zM2019.432 1356.246l2.026-1.213c0 0-1.309-.691-1.273-2.147.036-1.457-.66-3.135-.66-3.135l-1.919 1.957c0 0 1.357 1.959 1.215 2.672C2018.678 1355.092 2019.432 1356.246 2019.432 1356.246z" class="color6DC671 svgShape"/><path fill="#57aa57" d="M2020.304 1362.08l1.474-3.308c0 0-2.158.346-3.302-1.456-1.143-1.802-3.359-3.211-3.359-3.211l-.74 4.116c0 0 3.25 1.148 3.658 2.145C2018.445 1361.36 2020.304 1362.08 2020.304 1362.08zM2045.177 1353.133l3.433.995c0 0-.705-2.241.83-3.777 1.533-1.535 2.505-4.146 2.505-4.146l-4.08-.068c0 0-.545 3.669-1.431 4.278C2045.548 1351.024 2045.177 1353.133 2045.177 1353.133zM2053.163 1349.152l2.083.603c0 0-.427-1.36.504-2.292.931-.932 1.521-2.515 1.521-2.515l-2.477-.041c0 0-.33 2.226-.868 2.596C2053.389 1347.872 2053.163 1349.152 2053.163 1349.152z" class="color57AA57 svgShape"/><path fill="#6dc671" d="M2050.1,1353.589l3.028-1.154c0,0-1.63-1.265-1.258-3.24c0.373-1.976-0.201-4.435-0.201-4.435         l-3.049,2.195c0,0,1.414,3.003,1.061,3.94C2049.331,1351.829,2050.1,1353.589,2050.1,1353.589z" class="color6DC671 svgShape"/><path fill="#57aa57" d="M1934.873 1327.273l-4.155-1.202c0 0 .853 2.709-1.004 4.57-1.857 1.859-3.035 5.017-3.035 5.017l4.94.082c0 0 .659-4.438 1.732-5.177C1934.425 1329.825 1934.873 1327.273 1934.873 1327.273zM1932.86 1360.83l1.136-4.173c0 0-2.695.896-4.585-.931-1.888-1.828-5.065-2.954-5.065-2.954l-.004 4.941c0 0 4.448.588 5.204 1.648C1930.301 1360.422 1932.86 1360.83 1932.86 1360.83zM1925.208 1332.092l-2.521-.731c0 0 .517 1.646-.609 2.774-1.128 1.128-1.842 3.045-1.842 3.045l2.998.05c0 0 .4-2.694 1.051-3.141C1924.936 1333.64 1925.208 1332.092 1925.208 1332.092z" class="color57AA57 svgShape"/><path fill="#6dc671" d="M1928.915,1326.722l-3.664,1.397c0,0,1.972,1.529,1.521,3.921c-0.451,2.391,0.245,5.367,0.245,5.367         l3.69-2.655c0,0-1.712-3.635-1.285-4.769C1929.847,1328.85,1928.915,1326.722,1928.915,1326.722z" class="color6DC671 svgShape"/></g><g><path fill="#d6e5ed" d="M1967.119 1961.735l267.392 13.226c9.779.482 17.19 8.948 16.515 18.904l0 0c-.676 9.95-9.175 17.557-18.942 16.993l-267.131-15.418c-8.571-.495-15.01-8.409-14.417-17.678l.001-.003C1951.131 1968.486 1958.54 1961.31 1967.119 1961.735zM1737.424 1819.642l419.778 19.779c15.353.719 26.708 19.003 25.306 40.827l0 0c-1.405 21.812-15.022 38.76-30.353 37.86l-419.292-24.59c-13.454-.79-23.302-17.898-22.051-38.215l.001-.006C1712.065 1834.975 1723.955 1819.007 1737.424 1819.642z" opacity=".5" class="colorD6E5ED svgShape"/><path fill="#d6e5ed" d="M2095.843,2026.797l96.075,6.104c9.565,0.605,16.812,9.077,16.149,18.915      c-0.662,9.835-8.975,17.248-18.527,16.562l-95.984-6.888c-9.091-0.653-15.926-8.914-15.299-18.456      C2078.882,2033.491,2086.74,2026.22,2095.843,2026.797z" class="colorD6E5ED svgShape"/><path fill="#d6e5ed" d="M1950.333 2017.556l89.49 5.683c8.899.565 15.639 8.721 15.02 18.213-.621 9.488-8.36 16.659-17.252 16.021l-89.403-6.418c-8.477-.608-14.847-8.568-14.258-17.782C1934.518 2024.055 1941.849 2017.016 1950.333 2017.556zM1808.249 2008.532l83.286 5.289c8.277.526 14.54 8.375 13.959 17.526-.581 9.151-7.781 16.085-16.047 15.491l-83.211-5.972c-7.895-.567-13.826-8.236-13.276-17.129C1793.511 2014.838 1800.344 2008.029 1808.249 2008.532z" opacity=".5" class="colorD6E5ED svgShape"/><path fill="#d6e5ed" d="M1781.376,1952.546l136.722,6.762c8.408,0.416,14.773,8.241,14.186,17.472l0,0      c-0.59,9.23-7.905,16.316-16.307,15.83l-136.596-7.885c-7.81-0.45-13.676-7.991-13.129-16.843v-0.002      C1766.799,1959.026,1773.556,1952.159,1781.376,1952.546z" class="colorD6E5ED svgShape"/></g><g><path fill="#d6e5ed" d="M1891.646,2101.629l200.99,13.287c7.787,0.515,13.658,9.196,13.114,19.391l-2.096,39.274     c-0.544,10.195-7.297,18.042-15.084,17.528l-200.989-13.288c-7.787-0.515-13.659-9.196-13.114-19.391l2.096-39.275     C1877.106,2108.96,1883.859,2101.114,1891.646,2101.629z" class="colorD6E5ED svgShape"/></g><g><path fill="#fabd23" d="M1353.956,1613.214l822.871,41.299c27.68,1.43,49.243,26.821,48.164,56.712l-4.156,115.156      c-1.079,29.894-24.39,52.964-52.071,51.534l-822.871-41.299c-27.679-1.43-49.243-26.821-48.164-56.714l4.156-115.156      C1302.964,1634.855,1326.278,1611.784,1353.956,1613.214z" class="colorFABD23 svgShape"/><path fill="#fdd248" d="M1389.147 1694.131c-14.443-.728-24.89 9.947-25.867 29.434-.98 19.484 8.314 31.671 22.758 32.399 14.446.725 24.911-10.468 25.891-29.952C1412.903 1706.604 1403.594 1694.856 1389.147 1694.131zM1386.623 1744.322c-7.307-.367-11.536-8.171-10.934-20.13.599-11.958 5.567-18.786 12.874-18.418 7.307.367 11.558 7.658 10.959 19.615C1398.919 1737.349 1393.93 1744.69 1386.623 1744.322zM1462.519 1717.54c.714-14.178-8.377-19.043-19.738-19.614l-19.289-.97-2.998 59.644 12.106.609 1.079-21.465 6.66.334 9.15 21.978 13.55.683-10.934-24.494C1457.969 1731.656 1462.08 1726.307 1462.519 1717.54zM1435.059 1708.274l6.196.312c6.37.319 9.694 2.458 9.396 8.355-.294 5.866-3.866 8.73-10.237 8.412l-6.196-.312L1435.059 1708.274zM1488.993 1700.248l-15.142-.76-2.997 59.644 15.82.795c15.679.788 26.7-8.26 27.733-28.759C1515.436 1710.666 1505.35 1701.071 1488.993 1700.248zM1485.806 1748.999l-2.297-.115 1.905-37.927 2.297.116c9.083.455 15.002 5.206 14.287 19.471C1501.28 1744.807 1494.886 1749.455 1485.806 1748.999z" class="colorFDD248 svgShape"/><polygon fill="#fdd248" points="1523.022 1761.755 1557.402 1763.484 1557.969 1752.178 1535.699 1751.057 1536.389 1737.312 1554.65 1738.229 1555.22 1726.923 1536.959 1726.005 1537.562 1714.027 1559.013 1715.106 1559.58 1703.798 1526.02 1702.11" class="colorFDD248 svgShape"/><path fill="#fdd248" d="M1610.068 1724.96c.714-14.178-8.377-19.043-19.738-19.614l-19.289-.97-2.997 59.643 12.106.609 1.079-21.465 6.66.334 9.15 21.978 13.55.683-10.935-24.494C1605.519 1739.076 1609.629 1733.727 1610.068 1724.96zM1582.609 1715.695l6.196.312c6.37.319 9.694 2.458 9.397 8.355-.294 5.867-3.867 8.731-10.237 8.412l-6.196-.312L1582.609 1715.695zM1655.064 1719.175c4.238.214 7.509 2.038 10.888 5.228l6.536-8.191c-4.355-5.339-10.67-8.368-16.839-8.679-11.145-.56-19.469 6.932-19.967 16.815-.438 8.668 4.565 14.008 9.987 16.799l6.797 3.655c4.569 2.377 7.556 3.736 7.367 7.488-.179 3.543-2.763 5.633-7.817 5.378-4.409-.221-9.219-3.008-12.845-6.891l-7.417 8.901c5.177 5.958 12.435 9.268 19.406 9.618 12.761.641 20.61-7.565 21.107-17.467.424-8.429-3.418-13.489-9.809-16.763l-6.67-3.419c-4.57-2.307-8.01-3.808-7.824-7.469C1648.136 1720.766 1650.893 1718.966 1655.064 1719.175zM1712.431 1744.952c-.588 11.68-4.26 15.538-10.284 15.236-5.991-.301-9.089-4.502-8.501-16.182l1.677-33.38-12.113-.609-1.608 32.003c-1.008 20.024 6.103 29.114 19.958 29.81 13.862.697 21.604-7.646 22.613-27.671l1.607-32.003-11.673-.588L1712.431 1744.952zM1760.634 1724.484c3.875.196 6.668 2.298 9.219 5.221l6.814-8.328c-3.397-4.296-8.796-8.203-15.72-8.549-13.533-.68-25.858 10.204-26.852 29.989-1.012 20.092 9.803 31.143 23.387 31.826 6.931.347 13.002-2.348 17.738-7.883l-5.96-8.785c-2.777 3.033-6.362 5.266-10.758 5.046-7.828-.392-12.598-7.774-11.982-20.031C1747.122 1731.029 1753.286 1724.113 1760.634 1724.484zM1805.407 1726.736c3.879.196 6.669 2.297 9.219 5.221l6.818-8.328c-3.399-4.296-8.799-8.2-15.723-8.549-13.533-.68-25.858 10.203-26.852 29.989-1.012 20.092 9.803 31.143 23.39 31.826 6.928.35 12.999-2.345 17.739-7.883l-5.96-8.785c-2.777 3.033-6.362 5.266-10.76 5.046-7.828-.393-12.595-7.774-11.979-20.031C1791.9 1733.281 1798.063 1726.368 1805.407 1726.736z" class="colorFDD248 svgShape"/><polygon fill="#fdd248" points="1827.735 1777.078 1862.116 1778.808 1862.683 1767.501 1840.412 1766.38 1841.102 1752.636 1859.36 1753.553 1859.931 1742.246 1841.672 1741.329 1842.275 1729.35 1863.723 1730.429 1864.29 1719.122 1830.733 1717.434" class="colorFDD248 svgShape"/><path fill="#fdd248" d="M1892.984 1731.141c4.234.21 7.502 2.037 10.884 5.224l6.539-8.188c-4.354-5.339-10.669-8.371-16.838-8.679-11.149-.56-19.469 6.932-19.967 16.816-.438 8.667 4.565 14.004 9.987 16.799l6.793 3.654c4.573 2.377 7.559 3.737 7.37 7.488-.178 3.543-2.762 5.63-7.819 5.378-4.406-.224-9.216-3.011-12.842-6.891l-7.42 8.901c5.176 5.956 12.437 9.269 19.405 9.618 12.764.641 20.613-7.564 21.111-17.467.424-8.429-3.418-13.488-9.813-16.762l-6.662-3.42c-4.576-2.307-8.016-3.811-7.83-7.472C1886.052 1732.728 1888.81 1730.931 1892.984 1731.141zM1944.574 1749.255l-6.67-3.419c-4.57-2.307-8.009-3.812-7.824-7.472.172-3.412 2.929-5.213 7.104-5.003 4.235.214 7.506 2.038 10.884 5.228l6.539-8.188c-4.359-5.339-10.67-8.371-16.838-8.683-11.146-.561-19.473 6.932-19.971 16.815-.438 8.667 4.569 14.008 9.99 16.803l6.794 3.655c4.573 2.377 7.559 3.736 7.37 7.484-.178 3.546-2.766 5.633-7.82 5.378-4.406-.221-9.219-3.008-12.842-6.891l-7.42 8.905c5.176 5.955 12.438 9.265 19.405 9.618 12.764.641 20.61-7.568 21.107-17.471C1954.806 1757.585 1950.968 1752.529 1944.574 1749.255zM2011.056 1760.417c1.868-1.062 28.941-26.59 31.275-24.997 2.334 1.593 17.738 24.954 17.738 24.954s102.225-57.341 104.093-56.279c1.867 1.062 4.667 4.247 4.667 4.247s-98.024 105.125-106.427 108.31C2054 1819.839 2011.056 1760.417 2011.056 1760.417z" class="colorFDD248 svgShape"/></g><g><path fill="#ffa896" d="M2460.029,1494.624c0,0,50.26,9.963,55.021-42.931c4.76-52.892-104.924-163.432-149.913-139.592    c-44.989,23.84-19.353,71.309,20.613,93.572c39.967,22.262,49.864,58.436,49.864,58.436L2460.029,1494.624z" class="colorFFA896 svgShape"/><path fill="#f29788" d="M2483.568,1475.064c-14.762-2.765-28.272-12.073-38.801-22.43c-10.719-10.548-19.202-22.981-28.67-34.594    c-9.146-11.218-22.226-18.163-34.993-24.434c-8.644-4.245-17.433-8.307-25.711-13.214c7.87,9.797,18.468,18.659,30.358,25.281    c39.967,22.262,49.864,58.436,49.864,58.436l24.415,30.514c0,0,34.981,6.906,49.333-21.532    C2501.125,1475.834,2492.318,1476.702,2483.568,1475.064z" class="colorF29788 svgShape"/></g><g><path fill="#ffa896" d="M2450.706,1605.503c0,0,50.259,9.963,55.021-42.929c4.76-52.894-104.925-163.434-149.914-139.593    c-44.989,23.84-19.353,71.31,20.615,93.572c39.965,22.262,49.862,58.437,49.862,58.437L2450.706,1605.503z" class="colorFFA896 svgShape"/><path fill="#f29788" d="M2499.677,1532.959c-0.07,3.167-0.299,6.315-0.826,9.376c-1.106,6.441-3.595,12.899-8.152,17.702    c-5.072,5.346-12.021,7.733-19.252,8.175c-10.232,0.623-20.737-1.21-29.687-6.367c-9.668-5.57-16.271-14.984-24.669-22.158    c-8.815-7.53-18.593-13.64-28.606-19.426c-9.467-5.47-18.236-12.245-26.011-19.925c-14.452-14.272-26.499-32.641-28.977-53.114    c-7.339,23.986,14.045,53.24,42.929,69.33c39.965,22.262,49.862,58.437,49.862,58.437l24.417,30.513    c0,0,50.259,9.963,55.021-42.931C2506.501,1553.958,2504.2,1543.802,2499.677,1532.959z" class="colorF29788 svgShape"/></g><g><path fill="#ffa896" d="M2432.63,1709.92c0,0,50.261,9.963,55.021-42.931c4.76-52.892-104.926-163.43-149.913-139.59    c-44.989,23.84-19.352,71.309,20.613,93.57c39.966,22.263,49.863,58.437,49.863,58.437L2432.63,1709.92z" class="colorFFA896 svgShape"/><path fill="#f29788" d="M2468.006,1694.684c-7.963,0.154-15.271-3.447-21.218-8.527c-7.451-6.366-10.323-15.637-14.98-23.918    c-4.808-8.549-12.834-14.591-21.075-19.614c-8.394-5.118-17.277-8.948-26.316-12.743c-9.681-4.063-19.299-8.289-28.68-13.007    c-5.276-2.653-10.421-5.538-15.482-8.558c5.497,4.74,11.603,9.033,18.098,12.651c39.966,22.263,49.863,58.437,49.863,58.437    l24.416,30.513c0,0,32.244,6.362,47.52-18.297C2476.345,1693.438,2472.247,1694.6,2468.006,1694.684z" class="colorF29788 svgShape"/></g><g><path fill="#ffa896" d="M2407.221,1895.671c0,0,74.936-40.585,79.696-93.477c4.761-52.894-104.924-163.433-149.914-139.593    c-44.988,23.84-19.353,71.309,20.615,93.572c39.967,22.262,49.864,58.436,49.864,58.436L2407.221,1895.671z" class="colorFFA896 svgShape"/><path fill="#f29788" d="M2450.519,1863.759c-2.175-3.8-4.303-7.628-6.463-11.437c-2.338-4.129-5.535-7.715-8.659-11.262    c-5.18-5.879-10.396-11.735-13.712-18.915c-3.763-8.148-3.76-17.05-5.684-25.665c-3.782-16.933-18.657-27.68-33.23-35.267    c-14.471-7.537-31.446-12.241-43.727-23.416c-8.987-8.176-14.74-19.693-23.623-27.928c5.749,17.668,22.171,35.151,42.197,46.305    c39.967,22.262,49.864,58.436,49.864,58.436l-0.506,81.462C2406.976,1896.071,2428.182,1884.715,2450.519,1863.759z" class="colorF29788 svgShape"/></g></g><g><path fill="#e5e3cc" d="M702.879,468.542l145.962,1.002c71.557,0.491,127.311,60.057,123.439,133.1L963.9,760.751    c-3.884,73.263-65.934,129.431-137.498,125.452l-145.969-8.117c-68.013-3.78-119.193-63.507-115.307-133.399l8.386-150.842    C577.388,524.152,634.864,468.075,702.879,468.542z" class="colorE5E3CC svgShape"/><path fill="#3d72c1" d="M624.657,758.284c-0.501,9.71,6.646,17.976,16.039,18.408l242.578,10.442    c10.028,0.444,18.499-7.399,19.069-17.425l4.793-88.647c-1.083,0.17-2.29,0.147-3.623,0.122    c-9.268-0.303-18.036-3.581-24.805-8.41c-6.515-4.761-14.856-3.776-21.55,0.861c-5.276,3.584-12.495,5.734-20.685,5.515    c-8.95-0.297-17.024-3.308-22.97-7.93c-6.199-4.755-14.459-4.593-21.088-0.082c-5.79,3.891-13.458,6.224-21.964,6    c-8.507-0.288-15.948-3.097-21.267-7.391c-5.943-4.813-13.999-5.411-20.496-1.086c-6.368,4.198-14.674,6.708-23.434,6.479    c-7.808-0.276-14.495-2.752-19.122-6.587c-5.941-4.94-13.855-6.297-20.414-2.102c-6.879,4.317-15.569,7.01-24.393,6.716    c-4.507-0.149-8.617-1.117-11.955-2.641L624.657,758.284z" class="color3D72C1 svgShape"/><path fill="#fdd248" d="M665.641 778.002l2.835.114 6.333.241 31.058 1.373 12.303.535 7.116.316 3.042-71.286c.424-9.648-12.095-17.914-28.018-18.457-16.044-.605-29.645 6.802-30.252 16.568L665.641 778.002zM794.703 746.848l-.061-20.653c-.037-12.76 10.606-23.175 24.026-22.754 13.701.43 24.162 11.912 23.141 25.101l-1.626 21.032L794.703 746.848z" class="colorFDD248 svgShape"/><path fill="#3d72c1" d="M877.243,551.181c9.889,0.151,18.318,6.735,20.841,16.299l20.104,76.223     c3.482,13.196-7.894,24.029-25.525,23.519c-17.551-0.507-33.241-12.039-35.014-25.094l-12.431-91.43L877.243,551.181z" class="color3D72C1 svgShape"/><path fill="#fdd248" d="M845.213,550.7l12.434,91.428c1.772,13.055-10.839,23.766-28.206,23.265     c-17.288-0.501-31.356-11.902-31.475-24.819l-0.825-90.6L845.213,550.7z" class="colorFDD248 svgShape"/><path fill="#3d72c1" d="M797.138,549.973l0.828,90.6c0.118,12.917-13.697,23.514-30.803,23.018     c-17.033-0.492-29.522-11.768-28.029-24.55l10.48-89.789L797.138,549.973z" class="color3D72C1 svgShape"/><path fill="#fdd248" d="M749.612,549.253l-10.481,89.789c-1.494,12.781-16.472,23.263-33.325,22.775     c-16.781-0.485-27.737-11.638-24.68-24.286l21.502-88.989L749.612,549.253z" class="colorFDD248 svgShape"/><path fill="#3d72c1" d="M623.929,636.043l26.61-72.778c3.361-9.19,11.991-15.332,21.376-15.189l30.711,0.464l-21.508,88.991     c-3.053,12.648-19.157,23.022-35.769,22.542C628.817,659.595,619.351,648.559,623.929,636.043z" class="color3D72C1 svgShape"/><path fill="#fdd248" d="M935.275,912.821L585.89,900.723c-13.536-0.468-25.657,10.075-27.073,23.551l-5.455,51.913    c-1.416,13.476,8.408,24.779,21.945,25.248l349.385,12.098c13.536,0.469,25.657-10.075,27.073-23.551l5.455-51.913    C958.636,924.593,948.811,913.29,935.275,912.821z" class="colorFDD248 svgShape"/><path fill="#fabd23" d="M653.174 944.778l-14.065-2.949-5.152-13.573c-.388-1.018-1.331-1.447-2.268-1.376.005-.02.012-.045.016-.065-.207.014-.399.12-.599.188-.129.045-.258.052-.381.12-.361.198-.689.48-.931.886l-7.634 12.828-14.527 1.282c-.443.038-.814.213-1.142.443-.102.071-.175.156-.264.241-.111.105-.25.186-.339.311.032.002.065.005.097.006-.646.856-.801 2.058-.02 2.961l9.414 10.886-3.805 14.381c-.506 1.915 1.35 3.5 3.141 2.683l13.441-6.13 12.133 7.562c.59.367 1.245.413 1.835.236.001.002.001.003.001.005.006-.002.012-.006.017-.008.234-.073.453-.184.658-.323.052-.037.096-.083.147-.123.143-.115.273-.24.389-.383.052-.065.097-.132.144-.202.096-.149.173-.308.236-.478.028-.075.061-.145.08-.222.067-.253.105-.517.084-.801l-1.078-14.625 10.521-9.016h-.001l.755-.646C655.577 947.592 655.042 945.17 653.174 944.778zM714.792 947.419l-14.065-2.949-5.152-13.573c-.388-1.018-1.331-1.446-2.268-1.376.005-.02.012-.045.016-.065-.207.014-.399.119-.599.188-.129.045-.259.052-.381.119-.361.199-.689.48-.931.886l-7.634 12.828-14.527 1.282c-.444.038-.814.213-1.143.444-.102.07-.174.156-.264.241-.111.106-.25.187-.339.312.032.002.065.005.097.006-.646.855-.801 2.058-.02 2.961l9.414 10.886-3.805 14.381c-.506 1.914 1.35 3.5 3.141 2.683l13.441-6.13 12.133 7.562c.59.367 1.245.413 1.835.236.001.001.002.003.002.005.006-.002.012-.006.017-.008.233-.073.453-.184.658-.323.052-.037.096-.083.147-.123.143-.115.273-.24.389-.384.052-.065.097-.132.144-.201.096-.149.173-.308.236-.479.028-.075.06-.144.08-.222.067-.254.104-.517.084-.801l-1.078-14.625 10.521-9.016h-.001l.755-.645C717.195 950.233 716.661 947.81 714.792 947.419zM776.41 950.06l-14.064-2.949-5.153-13.573c-.387-1.018-1.33-1.447-2.267-1.377.005-.02.012-.044.016-.064-.207.014-.399.119-.6.188-.128.045-.258.051-.38.119-.361.199-.689.481-.931.886l-7.634 12.828L730.87 947.4c-.444.038-.814.213-1.143.444-.102.07-.175.156-.264.241-.111.105-.25.187-.339.312.032.002.065.005.097.006-.646.856-.801 2.058-.02 2.961l9.414 10.886-3.805 14.382c-.506 1.914 1.35 3.5 3.141 2.683l13.44-6.13 12.133 7.563c.59.367 1.246.412 1.835.235.001.002.002.003.002.005.006-.003.011-.006.017-.008.234-.073.454-.184.658-.323.053-.037.096-.083.147-.123.143-.115.273-.241.389-.384.052-.065.097-.132.144-.201.096-.149.173-.308.235-.479.029-.075.061-.144.081-.222.066-.253.104-.517.084-.801l-1.078-14.625 10.521-9.016h-.001l.755-.646C778.813 952.874 778.279 950.451 776.41 950.06zM838.028 952.7l-14.064-2.948-5.153-13.573c-.387-1.018-1.33-1.447-2.267-1.377.005-.02.012-.044.016-.064-.208.014-.399.119-.6.187-.128.045-.258.052-.381.12-.361.198-.689.48-.93.886l-7.634 12.828-14.528 1.282c-.443.037-.814.213-1.142.443-.102.071-.175.156-.264.241-.111.105-.25.186-.339.311.032.002.064.004.097.007-.647.855-.801 2.058-.021 2.96l9.415 10.886-3.805 14.381c-.506 1.915 1.35 3.5 3.141 2.683l13.44-6.13 12.133 7.563c.59.367 1.245.412 1.835.235.001.002.002.003.002.005.006-.003.011-.006.017-.008.234-.072.453-.184.658-.323.053-.037.096-.083.147-.124.144-.114.273-.24.389-.383.052-.065.097-.132.144-.202.096-.149.173-.308.235-.478.029-.075.061-.144.081-.222.066-.254.104-.517.083-.801l-1.078-14.625 10.522-9.016h-.001l.755-.646C840.431 955.514 839.898 953.092 838.028 952.7zM899.647 955.341l-14.064-2.949-5.153-13.573c-.387-1.018-1.33-1.447-2.267-1.376.005-.02.012-.045.016-.065-.208.014-.4.119-.6.188-.128.045-.258.052-.381.119-.361.199-.689.48-.931.887l-7.633 12.828-14.528 1.282c-.443.037-.814.213-1.142.443-.102.07-.175.156-.264.241-.111.105-.249.186-.339.311.032.002.064.005.097.006-.647.855-.801 2.058-.021 2.961l9.415 10.886-3.805 14.381c-.506 1.914 1.35 3.5 3.141 2.683l13.44-6.13 12.133 7.562c.59.367 1.245.413 1.835.236.001.001.002.003.002.005.006-.002.011-.006.017-.008.234-.073.453-.184.658-.323.053-.037.096-.083.147-.124.144-.114.273-.24.389-.384.052-.065.097-.132.144-.201.096-.149.173-.308.235-.478.028-.076.061-.145.08-.222.067-.254.105-.517.084-.801l-1.078-14.625 10.522-9.016-.001-.001.755-.645C902.05 958.155 901.516 955.732 899.647 955.341z" class="colorFABD23 svgShape"/></g><g><path fill="#e5e3cc" d="M775.57,2052.492c56.823,139.69,132.571,275.063,226.503,402.309c-3.954,1.798-4.606,4.382-5.465,9.035    c-0.956,5.023-2.042,11.297-10.707,15.059c-8.659,3.758-16.151,1.198-22.161-0.835c-5.624-1.857-8.723-2.863-12.756-1.2    c-4.042,1.657-4.701,4.189-5.722,8.794c-1.137,4.995-2.57,11.253-11.301,14.671c-8.848,3.457-16.363,0.685-22.236-1.596    c-5.5-2.086-8.659-3.149-12.787-1.634c-4.12,1.511-4.883,4.016-6.066,8.587c-1.313,4.933-2.885,11.104-11.878,14.261    c-8.995,3.141-16.389,0.091-22.302-2.357c-5.448-2.284-8.502-3.483-12.691-2.105c-4.21,1.366-5.037,3.85-6.398,8.365    c-1.515,4.891-3.295,11-12.458,13.834c-9.157,2.83-16.477-0.471-22.341-3.126c-5.415-2.454-8.427-3.773-12.691-2.541    c-4.278,1.226-5.208,3.67-6.727,8.135c-1.69,4.829-3.804,10.888-13.01,13.381c-9.314,2.518-16.556-1.048-22.362-3.891    c-5.349-2.638-8.332-4.06-12.68-2.98c-4.331,1.072-5.374,3.479-7.155,7.913c-1.765,4.742-4.095,10.717-13.44,12.893    c-9.465,2.172-16.613-1.625-22.365-4.675c-5.283-2.823-8.264-4.336-12.66-3.411c-4.405,0.918-5.621,3.308-7.47,7.651    c-1.946,4.667-4.481,10.556-14.078,12.421c-9.475,1.823-16.656-2.212-22.234-5.475c-5.226-3-8.15-4.631-12.618-3.851    c-63.862-145.665-108.649-295.051-134.294-444.406c7.193-0.864,11.802,3.708,15.469,7.38c3.522,3.365,5.482,5.073,8.8,4.618    c3.487-0.497,4.679-2.637,6.665-6.776c2.074-4.467,4.781-10.055,11.941-11.193c7.085-1.126,11.795,3.293,15.54,6.813    c3.516,3.266,5.578,4.877,8.932,4.282c3.344-0.602,4.463-2.796,6.282-7.002c1.995-4.557,4.395-10.239,11.446-11.627    c6.96-1.39,11.772,2.867,15.662,6.239c3.577,3.135,5.599,4.699,8.894,3.979c3.293-0.727,4.324-2.962,5.987-7.23    c1.817-4.627,4.009-10.382,10.93-12.034c6.926-1.653,11.729,2.438,15.697,5.675c3.632,2.999,5.683,4.489,8.921,3.659    c3.232-0.843,4.168-3.114,5.676-7.44c1.646-4.698,3.624-10.537,10.412-12.424c6.783-1.897,11.684,2.007,15.705,5.114    c3.705,2.876,5.782,4.302,8.958,3.35c3.163-0.962,4.009-3.262,5.356-7.647c1.48-4.752,3.29-10.68,9.874-12.785    c6.645-2.138,11.688,1.571,15.708,4.563c3.751,2.745,5.94,4.064,9.044,3.011c3.099-1.068,3.86-3.394,5.036-7.835    c1.295-4.814,2.819-10.762,9.327-13.134c6.486-2.372,11.542,1.205,15.694,4.021c3.891,2.591,6.009,3.867,9.046,2.693    c3.024-1.174,3.713-3.534,4.786-8.04C767.846,2061.134,769.205,2055.08,775.57,2052.492z" class="colorE5E3CC svgShape"/><path fill="#fabd23" d="M838.093,2378.372c25.038,44.124,9.375,93.794-39.561,108.616   c-48.778,14.836-107.756-13.552-127.176-60.662c-19.546-47.132,3.182-92.967,46.353-104.892   C761.049,2309.574,812.944,2334.14,838.093,2378.372z" class="colorFABD23 svgShape"/><path fill="#e5e3cc" d="M775.698,2420.297c-1.404-2.753-3.297-4.715-5.676-5.886c-2.372-1.17-5.771-1.896-10.178-2.205    c-4.404-0.308-8.303-0.782-11.668-1.383c-3.359-0.622-6.454-1.556-9.226-2.804c-2.778-1.257-5.254-2.939-7.478-5.074    c-2.199-2.129-4.067-4.87-5.605-8.214c-2.649-5.766-2.949-10.981-0.998-15.646c1.954-4.674,5.771-8.126,11.452-10.412    c-1.679-3.642-3.341-7.286-4.992-10.932c2.646-0.741,5.294-1.486,7.932-2.24c1.692,3.688,3.396,7.372,5.116,11.054    c6.27-0.841,12.025,0.3,17.343,3.438c5.323,3.135,9.601,7.968,12.868,14.523c-4.832,1.479-9.684,2.934-14.546,4.367    c-1.965-4.05-4.27-6.842-6.888-8.375c-2.618-1.531-5.317-1.899-8.093-1.102c-2.735,0.782-4.51,2.163-5.283,4.176    c-0.783,2.002-0.505,4.402,0.795,7.188c1.214,2.586,2.943,4.432,5.181,5.583c2.234,1.135,5.773,1.949,10.622,2.398    c4.833,0.454,8.913,0.982,12.233,1.643c3.317,0.647,6.327,1.595,9.034,2.844c2.715,1.251,5.131,2.875,7.261,4.871    c2.131,1.998,3.976,4.527,5.575,7.566c2.957,5.673,3.599,10.85,1.798,15.513c-1.785,4.66-5.756,8.301-11.891,10.867    c1.734,3.336,3.48,6.671,5.24,10.002c-2.787,0.833-5.577,1.661-8.37,2.482c-1.731-3.324-3.451-6.647-5.161-9.977    c-7.539,1.333-14.345,0.448-20.345-2.641c-5.996-3.089-10.674-8.132-14.016-15.11c5.008-1.35,10.003-2.728,14.982-4.131    c1.986,4.029,4.479,6.839,7.513,8.422c3.032,1.577,6.393,1.842,10.061,0.768c3.046-0.881,5.033-2.391,6.004-4.467    C777.243,2425.315,777.062,2422.945,775.698,2420.297z" class="colorE5E3CC svgShape"/><path fill="#fabd23" d="M789.99,2179.035c-73.681,27.701-151.942,48.768-233.778,62.032   c-2.323-8.62-4.583-17.247-6.778-25.88c80.441-12.855,157.334-33.406,229.686-60.484   C782.68,2162.827,786.304,2170.938,789.99,2179.035z" opacity=".1" class="colorFABD23 svgShape"/><path fill="#fabd23" d="M812.877,2227.387c-76.326,29.021-157.317,51.185-241.941,65.333   c-2.581-8.594-5.1-17.198-7.556-25.807c83.228-13.697,162.855-35.3,237.862-63.651   C805.057,2211.321,808.934,2219.362,812.877,2227.387z" opacity=".25" class="colorFABD23 svgShape"/></g><g><circle cx="2149.954" cy="613.912" r="89.522" fill="#e5e3cc" class="colorE5E3CC svgShape"/><path fill="#fabd23" d="M2104.132,605.093c2.049-1.024,31.751-25.647,34.312-24.11c2.561,1.536,19.46,24.069,19.46,24.069   s112.152-55.308,114.2-54.284c2.049,1.024,5.121,4.097,5.121,4.097s-107.543,101.398-116.761,104.47   C2151.246,662.408,2104.132,605.093,2104.132,605.093z" class="colorFABD23 svgShape"/></g></svg>