<svg width="168" height="39" viewBox="0 0 168 39" fill="none" xmlns="http://www.w3.org/2000/svg">
<path d="M13.8325 38.9061C11.4255 38.9634 9.04217 38.4204 6.89753 37.3261C4.96097 36.3061 3.36509 34.7419 2.30653 32.8261C1.17174 30.6995 0.608369 28.3147 0.671531 25.9051C0.634197 23.5784 1.16741 21.2781 2.22453 19.2051C3.22455 17.2632 4.74306 15.6364 6.61153 14.5051C8.62248 13.3189 10.9255 12.7196 13.2595 12.7751C14.6071 12.6984 15.9564 12.8929 17.2275 13.3471C18.4986 13.8012 19.6657 14.5058 20.6595 15.4191C22.5386 17.3521 23.804 19.7977 24.2965 22.4481C24.3188 22.5373 24.3282 22.6292 24.3245 22.7211C24.3337 22.8316 24.3207 22.9428 24.2864 23.0482C24.252 23.1537 24.197 23.2512 24.1245 23.3351C23.9714 23.482 23.791 23.5976 23.5935 23.6751C22.9576 23.9728 22.3025 24.2278 21.6325 24.4381C20.9419 24.6555 20.2699 24.8918 19.6165 25.1471C17.7092 25.8551 15.7929 26.5498 13.8675 27.2311C11.9422 27.9124 10.0325 28.6344 8.13853 29.3971C7.9932 29.4698 7.92053 29.5608 7.92053 29.6701C7.92381 29.7372 7.94264 29.8026 7.97553 29.8611C8.65094 31.1189 9.69881 32.1372 10.9755 32.7761C12.2438 33.4115 13.6441 33.7383 15.0625 33.7301C16.153 33.7392 17.2365 33.5547 18.2625 33.1851C19.2744 32.8117 20.254 32.3562 21.1915 31.8231C21.3148 31.7523 21.442 31.6885 21.5725 31.6321C21.6926 31.5789 21.8223 31.551 21.9535 31.5501C22.0623 31.5433 22.1711 31.5606 22.2724 31.6007C22.3737 31.6408 22.4649 31.7027 22.5395 31.7821C22.6788 31.9416 22.7938 32.1209 22.8805 32.3141C22.9532 32.4414 23.0939 32.7275 23.3025 33.1721C23.5112 33.6168 23.7112 34.0618 23.9025 34.5071C24.0392 34.7776 24.1355 35.0667 24.1885 35.3651C24.1963 35.5429 24.1382 35.7174 24.0255 35.8551C23.9119 35.9867 23.7841 36.1054 23.6445 36.2091C22.2132 37.1607 20.6205 37.8438 18.9445 38.2251C17.2747 38.6562 15.559 38.8849 13.8345 38.9061M6.99153 25.6391L12.4915 23.7311C14.3262 23.0951 16.1515 22.4591 17.9675 21.8231C17.5194 20.8326 16.8759 19.9428 16.0755 19.2071C15.2631 18.4603 14.1916 18.0596 13.0885 18.0901C11.848 18.0437 10.6313 18.4396 9.65553 19.2071C8.74183 19.9599 8.04583 20.9432 7.63953 22.0551C7.20514 23.2 6.9835 24.4146 6.98553 25.6391" fill="white"/>
<path d="M40.6056 0.049939C43.1014 0.01485 45.5804 0.463426 47.9056 1.37092C50.0032 2.18747 51.81 3.61033 53.0956 5.45796C54.4571 7.58766 55.128 10.0857 55.0166 12.6109C55.0495 14.8031 54.5838 16.9741 53.6546 18.9599C52.6802 20.9217 51.1681 22.566 49.2946 23.7009C49.2378 23.7201 49.1886 23.757 49.1543 23.8061C49.1199 23.8552 49.1021 23.914 49.1036 23.9739C49.3053 24.4215 49.5469 24.8498 49.8256 25.2539C50.3069 26.0353 50.9156 26.9976 51.6516 28.1409C52.3876 29.2843 53.1413 30.4459 53.9126 31.6259C54.6846 32.8066 55.3613 33.8509 55.9426 34.7589L57.0596 36.502C57.1503 36.648 57.2413 36.807 57.3326 36.979C57.4231 37.1513 57.4699 37.3432 57.4686 37.5379C57.4785 37.6831 57.4321 37.8265 57.3389 37.9382C57.2458 38.05 57.1131 38.1216 56.9686 38.138C56.696 38.2022 56.4176 38.2384 56.1376 38.2459H50.7156C50.5332 38.2442 50.3539 38.1987 50.1928 38.1133C50.0316 38.0278 49.8933 37.905 49.7896 37.755C49.2194 37.0191 48.6919 36.2511 48.2096 35.4549C47.7189 34.6469 47.2189 33.8612 46.7096 33.0979C45.9129 31.8626 45.1046 30.632 44.2846 29.406C43.4646 28.18 42.6646 26.9403 41.8846 25.687C41.8576 25.6302 41.8151 25.5821 41.762 25.5484C41.709 25.5146 41.6475 25.4964 41.5846 25.4959H36.7056C36.6612 25.4896 36.6159 25.4936 36.5733 25.5078C36.5307 25.522 36.4921 25.5459 36.4603 25.5776C36.4286 25.6094 36.4047 25.6481 36.3905 25.6906C36.3763 25.7332 36.3722 25.7785 36.3786 25.8229C36.3786 27.0763 36.3739 28.3343 36.3646 29.5969C36.3553 30.8596 36.3416 32.1176 36.3236 33.3709C36.3236 33.8983 36.3373 34.5386 36.3646 35.2919C36.3971 35.9151 36.3743 36.5398 36.2966 37.1589C36.2684 37.4503 36.1703 37.7306 36.0106 37.976C35.9018 38.0815 35.7705 38.1608 35.6265 38.2081C35.4826 38.2554 35.3297 38.2693 35.1796 38.2489H30.4656C30.3125 38.2677 30.1572 38.2509 30.0118 38.1998C29.8663 38.1486 29.7346 38.0645 29.627 37.9541C29.5195 37.8436 29.4389 37.7097 29.3916 37.5629C29.3444 37.4162 29.3317 37.2604 29.3546 37.1079C29.3546 36.1266 29.3729 35.141 29.4096 34.151C29.4462 33.1609 29.4736 32.1653 29.4916 31.164C29.5463 27.022 29.5736 22.8709 29.5736 18.7109C29.5736 14.7696 29.5463 10.8096 29.4916 6.83095C29.4729 5.88694 29.4503 4.94663 29.4236 4.00996C29.3969 3.07329 29.3833 2.13329 29.3826 1.18995C29.359 1.03668 29.3713 0.879994 29.4187 0.732312C29.466 0.58463 29.5471 0.449967 29.6554 0.339002C29.7638 0.228036 29.8964 0.143772 30.0429 0.0929078C30.1895 0.0420432 30.3458 0.0259559 30.4996 0.0459107L40.6056 0.049939ZM36.3816 18.9599H41.8816C42.692 19 43.5018 18.8695 44.2586 18.5768C45.0154 18.2841 45.7023 17.8357 46.2748 17.2606C46.8472 16.6856 47.2926 15.9967 47.582 15.2387C47.8713 14.4806 47.9983 13.6702 47.9546 12.8599C48.0315 11.2048 47.4653 9.58412 46.3746 8.33693C45.8047 7.7511 45.1155 7.29469 44.3538 6.99861C43.592 6.70253 42.7755 6.57372 41.9596 6.62092H36.3546C36.3726 8.67426 36.3816 10.732 36.3816 12.794V18.9599Z" fill="white"/>
<path d="M73.8176 38.9061C71.4106 38.9634 69.0273 38.4204 66.8826 37.3261C64.9461 36.3061 63.3502 34.7419 62.2916 32.8261C61.1568 30.6995 60.5935 28.3147 60.6566 25.9051C60.6193 23.5784 61.1525 21.2781 62.2096 19.2051C63.2097 17.2632 64.7282 15.6364 66.5966 14.5051C68.6076 13.3189 70.9105 12.7196 73.2446 12.7751C74.5922 12.6984 75.9415 12.8929 77.2126 13.3471C78.4837 13.8012 79.6507 14.5058 80.6446 15.4191C82.5237 17.3521 83.7891 19.7977 84.2816 22.4481C84.3039 22.5373 84.3133 22.6292 84.3096 22.7211C84.3186 22.8314 84.3056 22.9425 84.2713 23.0477C84.2369 23.153 84.182 23.2503 84.1096 23.3341C83.9565 23.481 83.7761 23.5965 83.5786 23.6741C82.9427 23.9718 82.2876 24.2267 81.6176 24.4371C80.927 24.6551 80.2549 24.8915 79.6016 25.1461C77.6943 25.8541 75.778 26.5488 73.8526 27.2301C71.9273 27.9114 70.02 28.6338 68.1306 29.3971C67.9853 29.4698 67.9126 29.5608 67.9126 29.6701C67.9159 29.7372 67.9347 29.8026 67.9676 29.8611C68.643 31.1189 69.6909 32.1372 70.9676 32.7761C72.2358 33.4115 73.6362 33.7383 75.0546 33.7301C76.1451 33.7392 77.2286 33.5547 78.2546 33.1851C79.2665 32.8117 80.246 32.3562 81.1836 31.8231C81.3069 31.7523 81.4341 31.6885 81.5646 31.6321C81.6847 31.5789 81.8143 31.551 81.9456 31.5501C82.0543 31.5433 82.1632 31.5606 82.2645 31.6007C82.3658 31.6408 82.457 31.7027 82.5316 31.7821C82.671 31.9416 82.7858 32.1209 82.8726 32.3141C82.9453 32.4414 83.0859 32.7275 83.2946 33.1721C83.5033 33.6168 83.7033 34.0618 83.8946 34.5071C84.0313 34.7776 84.1276 35.0667 84.1806 35.3651C84.1884 35.5429 84.1303 35.7174 84.0176 35.8551C83.904 35.9867 83.7762 36.1054 83.6366 36.2091C82.2054 37.1614 80.6128 37.8453 78.9366 38.2271C77.2668 38.6582 75.5511 38.8869 73.8266 38.9081M66.9756 25.6391L72.4756 23.7311C74.3103 23.0951 76.1356 22.4591 77.9516 21.8231C77.5035 20.8326 76.86 19.9428 76.0596 19.2071C75.2471 18.4604 74.1757 18.0598 73.0726 18.0901C71.8321 18.0438 70.6154 18.4396 69.6396 19.2071C68.7259 19.9599 68.03 20.9432 67.6236 22.0551C67.1892 23.2 66.9676 24.4146 66.9696 25.6391" fill="white"/>
<path d="M93.7105 38.9612C92.6054 38.949 91.5098 38.7554 90.4675 38.3882C89.4083 38.0484 88.4458 37.46 87.6605 36.6722C87.5607 36.5824 87.4803 36.4732 87.4241 36.3513C87.3679 36.2294 87.337 36.0974 87.3335 35.9632C87.3676 35.6815 87.4269 35.4034 87.5105 35.1322C87.6285 34.6876 87.7618 34.2288 87.9105 33.7562C88.0592 33.2835 88.1502 32.9745 88.1835 32.8292C88.2589 32.6052 88.3595 32.3905 88.4835 32.1892C88.545 32.0868 88.6335 32.0033 88.7394 31.9479C88.8452 31.8925 88.9643 31.8673 89.0835 31.8752C89.6668 31.9683 90.2187 32.2021 90.6915 32.5562C91.4451 33.0178 92.315 33.2541 93.1985 33.2372C93.5291 33.2898 93.8674 33.2648 94.1866 33.164C94.5058 33.0633 94.7973 32.8896 95.0378 32.6568C95.2783 32.4239 95.4613 32.1383 95.5723 31.8225C95.6834 31.5067 95.7194 31.1694 95.6775 30.8372C95.7223 30.4214 95.6529 30.0011 95.4767 29.6217C95.3005 29.2424 95.0242 28.9182 94.6775 28.6842C94.0108 28.2842 93.2978 27.8859 92.5385 27.4892C91.1492 26.789 89.9526 25.7589 89.0535 24.4892C88.2174 23.1728 87.8007 21.6336 87.8585 20.0752C87.8028 19.1134 87.9498 18.1507 88.2901 17.2493C88.6303 16.348 89.1561 15.5283 89.8335 14.8432C91.2742 13.5426 93.172 12.8665 95.1105 12.9632C95.5342 12.9757 95.9569 13.0121 96.3765 13.0722C96.9777 13.1502 97.5737 13.2637 98.1615 13.4122C98.7162 13.5416 99.2487 13.7526 99.7415 14.0382C99.9249 14.1217 100.082 14.253 100.198 14.4184C100.313 14.5838 100.381 14.7772 100.396 14.9782C100.388 15.3649 100.314 15.7474 100.177 16.1092C100.032 16.5179 99.9142 16.8949 99.8235 17.2402C99.7498 17.4779 99.6492 17.7064 99.5235 17.9212C99.4552 18.0307 99.358 18.1192 99.2426 18.1769C99.1272 18.2346 98.9981 18.2593 98.8695 18.2482C98.4436 18.238 98.025 18.1356 97.6425 17.9482C97.1975 17.7465 96.714 17.6441 96.2255 17.6482C95.565 17.6383 94.9211 17.8546 94.4005 18.2612C94.1395 18.4649 93.9313 18.7284 93.7936 19.0296C93.6559 19.3307 93.5928 19.6605 93.6095 19.9912C93.5876 20.3595 93.6458 20.7281 93.7799 21.0718C93.914 21.4155 94.121 21.7261 94.3865 21.9822C94.9618 22.4927 95.6095 22.9154 96.3085 23.2362C97.1061 23.6197 97.8719 24.066 98.5985 24.5712C99.4005 25.1422 100.058 25.8924 100.52 26.7622C101.095 27.9627 101.362 29.2876 101.297 30.6172C101.363 32.7599 100.674 34.8578 99.3505 36.5442C98.6682 37.3608 97.8036 38.0056 96.8264 38.4268C95.8491 38.848 94.7866 39.0338 93.7245 38.9692" fill="white"/>
<path d="M108.105 13.1568C108.105 11.5948 108.096 10.0368 108.078 8.48277C108.06 6.92877 108.051 5.3801 108.05 3.83677C108.029 3.68507 108.043 3.53045 108.092 3.38511C108.14 3.23977 108.222 3.10771 108.33 2.99937C108.438 2.89102 108.57 2.80931 108.716 2.76078C108.861 2.71226 109.016 2.69824 109.167 2.71977H113.448C113.6 2.69824 113.755 2.71226 113.9 2.76078C114.045 2.80931 114.178 2.89102 114.286 2.99937C114.394 3.10771 114.476 3.23977 114.524 3.38511C114.573 3.53045 114.587 3.68507 114.565 3.83677C114.565 5.38077 114.561 6.92943 114.551 8.48277C114.542 10.0361 114.537 11.5941 114.537 13.1568C114.537 13.3748 114.655 13.4837 114.891 13.4837H119.172C119.324 13.4622 119.479 13.4763 119.624 13.5248C119.769 13.5733 119.902 13.655 120.01 13.7633C120.118 13.8717 120.2 14.0037 120.248 14.1491C120.297 14.2944 120.311 14.449 120.289 14.6007C120.289 15.1641 120.285 15.7308 120.275 16.3008C120.266 16.8708 120.261 17.4474 120.261 18.0307C120.283 18.1824 120.269 18.3371 120.22 18.4825C120.172 18.6278 120.09 18.7599 119.982 18.8682C119.874 18.9765 119.742 19.0582 119.596 19.1067C119.451 19.1553 119.296 19.1693 119.144 19.1477H114.894C114.658 19.1477 114.54 19.2568 114.54 19.4748C114.54 22.4181 114.549 25.3611 114.567 28.3038C114.585 31.2464 114.595 34.1894 114.595 37.1327C114.617 37.2844 114.603 37.4391 114.554 37.5845C114.506 37.7298 114.424 37.8619 114.316 37.9702C114.208 38.0785 114.075 38.1602 113.93 38.2087C113.785 38.2572 113.63 38.2713 113.478 38.2497H109.142C108.991 38.2713 108.836 38.2572 108.691 38.2087C108.545 38.1602 108.413 38.0785 108.305 37.9702C108.197 37.8619 108.115 37.7298 108.067 37.5845C108.018 37.4391 108.004 37.2844 108.025 37.1327C108.025 34.1894 108.039 31.2468 108.066 28.3048C108.094 25.3628 108.107 22.4197 108.107 19.4757C108.107 19.2031 107.916 19.0698 107.534 19.0758C107.152 19.0818 106.716 19.1151 106.226 19.1758C105.788 19.2349 105.341 19.1977 104.918 19.0668C104.536 18.9401 104.345 18.5951 104.345 18.0318V14.5987C104.324 14.447 104.338 14.2924 104.387 14.1471C104.435 14.0017 104.517 13.8697 104.625 13.7613C104.733 13.653 104.865 13.5713 105.011 13.5228C105.156 13.4743 105.311 13.4602 105.462 13.4817H107.752C107.988 13.4817 108.106 13.3728 108.106 13.1548" fill="white"/>
<path d="M129.091 13.5379C129.233 13.5195 129.378 13.5321 129.514 13.5747C129.651 13.6174 129.776 13.6891 129.883 13.785C129.989 13.8809 130.073 13.9987 130.129 14.1302C130.185 14.2617 130.212 14.4039 130.208 14.5469L130.482 17.6539C130.482 17.6719 130.499 17.8029 130.536 18.0539C130.573 18.3049 130.636 18.4209 130.727 18.4209C130.818 18.4209 130.913 18.3209 131.013 18.1209L131.19 17.7669C131.842 16.4781 132.773 15.3508 133.916 14.4669C135.101 13.634 136.528 13.2141 137.976 13.2719C138.463 13.2801 138.95 13.3135 139.434 13.3719C140.024 13.4386 140.318 13.7429 140.318 14.2849C140.3 14.7153 140.245 15.1435 140.156 15.5649C140.046 16.1462 139.924 16.7319 139.789 17.3219C139.653 17.9119 139.548 18.3616 139.474 18.6709C139.423 18.9362 139.306 19.1844 139.133 19.3929C139.03 19.4885 138.907 19.561 138.773 19.6056C138.639 19.6502 138.497 19.666 138.357 19.6519C138.178 19.6524 138 19.6388 137.825 19.6109C137.64 19.5829 137.453 19.5691 137.265 19.5699C135.928 19.5334 134.629 20.017 133.641 20.9189C132.652 21.8307 131.896 22.966 131.435 24.2299C130.958 25.4646 130.708 26.7754 130.698 28.0989V37.1459C130.72 37.2976 130.706 37.4522 130.657 37.5975C130.609 37.7429 130.527 37.8749 130.419 37.9833C130.311 38.0916 130.179 38.1733 130.033 38.2218C129.888 38.2703 129.733 38.2844 129.581 38.2629H125.357C125.203 38.2826 125.046 38.2659 124.899 38.2141C124.752 38.1623 124.619 38.0768 124.511 37.9645C124.402 37.8522 124.322 37.7161 124.276 37.5672C124.23 37.4183 124.219 37.2607 124.245 37.1069C124.245 34.2909 124.258 31.4799 124.286 28.6739C124.313 25.8679 124.326 23.0659 124.326 20.2679V14.6539C124.305 14.5022 124.319 14.3476 124.368 14.2022C124.416 14.0569 124.498 13.9248 124.606 13.8165C124.714 13.7081 124.846 13.6265 124.992 13.5779C125.137 13.5294 125.292 13.5153 125.443 13.5369L129.091 13.5379Z" fill="white"/>
<path d="M141.786 26.0177C141.744 23.6639 142.302 21.3382 143.408 19.2597C144.461 17.3077 146.03 15.682 147.944 14.5597C149.987 13.3798 152.315 12.7816 154.675 12.8297C156.98 12.7748 159.256 13.3634 161.246 14.5296C163.101 15.6491 164.613 17.2561 165.619 19.1756C166.682 21.2184 167.22 23.4939 167.185 25.7967C167.23 28.1296 166.696 30.4374 165.632 32.5136C164.636 34.4254 163.12 36.0168 161.259 37.1047C159.22 38.2536 156.908 38.8283 154.569 38.7677C152.23 38.822 149.918 38.2737 147.853 37.1756C145.969 36.1462 144.419 34.6007 143.384 32.7207C142.284 30.6618 141.736 28.3539 141.791 26.0207M154.543 18.3377C153.296 18.2931 152.073 18.6818 151.082 19.4377C150.149 20.1803 149.426 21.1524 148.982 22.2586C148.509 23.3999 148.268 24.6236 148.273 25.8587C148.272 27.0351 148.528 28.1975 149.023 29.2647C149.496 30.3224 150.233 31.2415 151.162 31.9347C152.117 32.6348 153.277 32.9988 154.462 32.9696C155.696 33.0154 156.909 32.6461 157.909 31.9207C158.829 31.2181 159.544 30.282 159.98 29.2097C160.906 26.9531 160.906 24.4223 159.98 22.1657C159.544 21.0857 158.835 20.1374 157.923 19.4137C156.954 18.6759 155.759 18.2957 154.543 18.3377Z" fill="white"/>
</svg>
